<svg width="507" height="404" viewBox="0 0 507 404" fill="none" xmlns="http://www.w3.org/2000/svg">
<g clip-path="url(#clip0)">
<path opacity="0.1" d="M35.8299 326.187C49.772 326.187 61.0742 321.783 61.0742 316.35C61.0742 310.917 49.772 306.513 35.8299 306.513C21.8879 306.513 10.5857 310.917 10.5857 316.35C10.5857 321.783 21.8879 326.187 35.8299 326.187Z" fill="black"/>
<path opacity="0.1" d="M443.654 366.855C457.596 366.855 468.898 362.451 468.898 357.018C468.898 351.585 457.596 347.182 443.654 347.182C429.712 347.182 418.409 351.585 418.409 357.018C418.409 362.451 429.712 366.855 443.654 366.855Z" fill="black"/>
<g opacity="0.1" filter="url(#filter0_d)">
<path d="M298.942 11.3305C260.526 27.5916 218.884 28.3477 180.205 13.0396C125.385 -8.65003 53.7926 -14.2015 27.2637 85.1908C-18.0132 255.001 74.6163 315.612 74.6163 315.612C74.6163 315.612 139.287 331.498 175.094 360.203C225.958 400.975 288.25 414.605 346.929 395.485C384.453 383.257 416.614 363.197 425.809 330.373C451.524 238.574 435.2 183.397 481.739 159.193C528.278 134.988 502.383 45.322 469.285 43.287C436.187 41.2521 358.21 62.0503 334.088 20.6814C325.488 5.99416 312.333 5.65602 298.942 11.3305Z" fill="black"/>
<path d="M299.137 11.7909L298.942 11.3305L299.137 11.7909C305.784 8.97423 312.313 7.67686 318.213 8.86054C324.091 10.0396 329.417 13.6945 333.656 20.9332C345.867 41.8747 371.664 47.0084 398.316 47.2344C411.666 47.3476 425.292 46.2292 437.63 45.2122L437.751 45.2023C450.059 44.1878 461.051 43.2817 469.254 43.7861C477.306 44.2811 485.011 50.1204 491.329 59.1389C497.637 68.1421 502.498 80.2283 504.884 93.018C509.664 118.64 504.479 146.802 481.508 158.749C458.023 170.963 450.43 191.014 445.472 219.348C444.038 227.544 442.824 236.432 441.512 246.036C438.283 269.665 434.464 297.623 425.327 330.238C416.204 362.806 384.264 382.793 346.774 395.01C288.273 414.072 226.155 400.492 175.407 359.813C157.438 345.408 132.256 334.238 111.599 326.674C101.265 322.889 92.0514 320.003 85.421 318.063C82.1056 317.093 79.4357 316.359 77.594 315.868C76.6731 315.622 75.9592 315.437 75.4752 315.313C75.2332 315.251 75.0487 315.205 74.9245 315.174L74.8212 315.148C74.7786 315.119 74.7166 315.077 74.6358 315.022C74.4653 314.904 74.2114 314.726 73.8812 314.486C73.2208 314.005 72.255 313.277 71.0402 312.288C68.6104 310.311 65.1844 307.294 61.2117 303.143C53.2664 294.84 43.1348 281.999 34.4118 263.864C16.9705 227.602 5.13623 170.12 27.7468 85.3197C40.979 35.7446 65.4096 12.4518 93.2675 4.18882C121.174 -4.08851 152.648 2.6742 180.021 13.5045C218.825 28.8619 260.603 28.1021 299.137 11.7909Z" stroke="black"/>
</g>
<path d="M442.633 358.414C442.633 358.414 449.365 333.306 441.365 314.825C437.958 307.098 436.931 298.367 438.437 289.945C439.18 285.952 440.256 282.042 441.651 278.264" stroke="#535461" stroke-width="2" stroke-miterlimit="10"/>
<path d="M436.669 266.589C436.669 269.663 441.752 278.59 441.752 278.59C441.752 278.59 446.834 269.669 446.834 266.589C446.834 265.111 446.299 263.694 445.345 262.649C444.391 261.603 443.098 261.016 441.749 261.016C440.4 261.016 439.107 261.603 438.153 262.649C437.2 263.694 436.664 265.111 436.664 266.589H436.669Z" fill="#D68F7E"/>
<path d="M428.266 283.637C429.792 286.219 438.487 290.683 438.487 290.683C438.487 290.683 438.33 280.164 436.804 277.582C436.441 276.968 435.972 276.438 435.422 276.023C434.872 275.608 434.254 275.316 433.601 275.163C432.948 275.01 432.274 274.999 431.618 275.131C430.961 275.264 430.335 275.536 429.775 275.934C429.215 276.332 428.731 276.846 428.353 277.449C427.974 278.051 427.707 278.729 427.567 279.445C427.428 280.16 427.418 280.898 427.539 281.618C427.66 282.337 427.909 283.023 428.272 283.637H428.266Z" fill="#D68F7E"/>
<path d="M428.631 312.76C431.138 314.143 440.697 313.19 440.697 313.19C440.697 313.19 435.716 304.196 433.208 302.813C432.005 302.147 430.609 302.033 429.329 302.496C428.048 302.958 426.988 303.959 426.381 305.278C425.774 306.597 425.67 308.126 426.092 309.529C426.514 310.933 427.427 312.095 428.631 312.76Z" fill="#D68F7E"/>
<path d="M433.438 334.732C435.682 336.576 445.264 337.388 445.264 337.388C445.264 337.388 441.741 327.601 439.486 325.775C438.402 324.896 437.044 324.525 435.71 324.743C434.377 324.962 433.177 325.752 432.375 326.94C431.573 328.127 431.235 329.616 431.434 331.077C431.633 332.538 432.354 333.853 433.438 334.732Z" fill="#D68F7E"/>
<path d="M449.157 291.279C447.143 293.425 437.758 295.644 437.758 295.644C437.758 295.644 440.058 285.433 442.072 283.287C443.039 282.257 444.34 281.691 445.688 281.712C447.036 281.733 448.321 282.341 449.261 283.401C450.2 284.461 450.717 285.886 450.698 287.363C450.678 288.841 450.124 290.249 449.157 291.279Z" fill="#D68F7E"/>
<path d="M454.481 317.045C451.973 318.428 442.414 317.475 442.414 317.475C442.414 317.475 447.395 308.481 449.903 307.128C451.107 306.463 452.502 306.349 453.783 306.811C455.063 307.274 456.123 308.274 456.73 309.594C457.337 310.913 457.441 312.442 457.019 313.845C456.598 315.248 455.684 316.41 454.481 317.075V317.045Z" fill="#D68F7E"/>
<path d="M456.517 342.872C454.273 344.716 444.692 345.528 444.692 345.528C444.692 345.528 448.215 335.74 450.47 333.914C451.554 333.036 452.912 332.665 454.245 332.883C455.579 333.102 456.778 333.892 457.58 335.079C458.382 336.267 458.721 337.756 458.521 339.217C458.322 340.678 457.601 341.993 456.517 342.872Z" fill="#D68F7E"/>
<path d="M35.8412 316.424C35.8412 316.424 50.2528 262.864 33.1485 223.395C25.9679 206.838 23.6118 188.26 26.9047 170.296C28.4922 161.775 30.7888 153.433 33.7655 145.372" stroke="#535461" stroke-width="2" stroke-miterlimit="10"/>
<path d="M23.1238 120.443C23.1238 127.009 33.9732 146.055 33.9732 146.055C33.9732 146.055 44.817 126.996 44.817 120.443C44.817 117.289 43.6739 114.265 41.6393 112.035C39.6046 109.805 36.845 108.553 33.9676 108.553C31.0901 108.553 28.3305 109.805 26.2959 112.035C24.2612 114.265 23.1182 117.289 23.1182 120.443H23.1238Z" fill="#D68F7E"/>
<path d="M5.18907 156.819C8.44838 162.352 27.0001 171.857 27.0001 171.857C27.0001 171.857 26.6635 149.405 23.4042 143.897C21.8098 141.33 19.3627 139.55 16.586 138.934C13.8093 138.319 10.9231 138.919 8.54439 140.605C6.16565 142.291 4.48298 144.93 3.856 147.957C3.22903 150.985 3.70746 154.161 5.18907 156.807V156.819Z" fill="#D68F7E"/>
<path d="M5.96907 218.987C11.3209 221.944 31.7238 219.903 31.7238 219.903C31.7238 219.903 21.0651 200.709 15.7414 197.77C14.4691 197.067 13.0829 196.645 11.662 196.529C10.241 196.413 8.81305 196.605 7.4597 197.094C6.10634 197.582 4.85407 198.358 3.77437 199.377C2.69468 200.396 1.80871 201.639 1.16705 203.033C0.525394 204.427 0.14061 205.946 0.03467 207.504C-0.0712701 209.061 0.10371 210.626 0.549618 212.109C1.45017 215.104 3.39961 217.585 5.96907 219.005V218.987Z" fill="#D68F7E"/>
<path d="M16.2068 265.876C21.0256 269.78 41.451 271.545 41.451 271.545C41.451 271.545 33.9338 250.642 29.1094 246.756C26.7958 244.881 23.8973 244.09 21.0515 244.557C18.2057 245.024 15.6458 246.711 13.9348 249.246C12.2238 251.782 11.5019 254.958 11.928 258.077C12.3541 261.196 13.8932 264.001 16.2068 265.876Z" fill="#D68F7E"/>
<path d="M49.7816 173.105C45.4845 177.679 25.4574 182.419 25.4574 182.419C25.4574 182.419 30.3604 160.619 34.6575 156.045C36.7219 153.844 39.4996 152.631 42.3796 152.675C45.2595 152.718 48.0059 154.013 50.0144 156.275C52.023 158.538 53.1292 161.582 53.0898 164.738C53.0503 167.894 51.8684 170.904 49.8041 173.105H49.7816Z" fill="#D68F7E"/>
<path d="M61.1416 228.135C55.7898 231.092 35.3868 229.051 35.3868 229.051C35.3868 229.051 46.0455 209.857 51.3693 206.918C52.6415 206.215 54.0277 205.793 55.4487 205.677C56.8697 205.561 58.2976 205.753 59.651 206.242C61.0043 206.73 62.2566 207.506 63.3363 208.525C64.416 209.544 65.3019 210.787 65.9436 212.181C66.5853 213.575 66.97 215.094 67.076 216.652C67.1819 218.209 67.0069 219.774 66.561 221.257C66.1151 222.74 65.407 224.112 64.4772 225.296C63.5473 226.479 62.4139 227.45 61.1416 228.153V228.135Z" fill="#D68F7E"/>
<path d="M65.4893 283.256C60.6704 287.16 40.245 288.925 40.245 288.925C40.245 288.925 47.7622 268.022 52.5866 264.136C54.9002 262.261 57.7987 261.47 60.6445 261.937C63.4903 262.404 66.0502 264.091 67.7612 266.626C69.4722 269.162 70.1941 272.338 69.768 275.457C69.3419 278.576 67.8028 281.381 65.4893 283.256Z" fill="#D68F7E"/>
<path d="M212.697 184.306L181.433 179.868C180.165 179.689 179.189 179.161 179.223 178.7C179.279 178.239 180.345 178.023 181.641 178.226L212.837 183.175C213.695 183.311 214.346 183.667 214.307 183.981C214.268 184.276 213.55 184.429 212.697 184.306Z" fill="#D68F7E"/>
<path d="M212.893 184.891L181.534 181.337C180.261 181.196 179.178 181.454 179.139 181.915C179.1 182.376 180.115 182.862 181.383 182.985L212.798 186.059C213.662 186.145 214.369 185.96 214.397 185.647C214.419 185.315 213.751 184.989 212.893 184.891Z" fill="#D68F7E"/>
<path d="M259.937 210.742L291.195 206.304C292.463 206.125 293.439 205.597 293.406 205.135C293.349 204.674 292.284 204.459 290.988 204.662L259.791 209.611C258.933 209.746 258.282 210.103 258.322 210.416C258.361 210.712 259.079 210.865 259.937 210.742Z" fill="#D68F7E"/>
<path d="M259.735 211.326L291.094 207.773C292.368 207.631 293.45 207.89 293.49 208.351C293.529 208.812 292.514 209.297 291.246 209.42L259.831 212.494C258.967 212.58 258.26 212.396 258.232 212.082C258.209 211.75 258.877 211.425 259.735 211.326Z" fill="#D68F7E"/>
<path d="M156.531 247.537H148.907V367.334H156.531V247.537Z" fill="#40414D"/>
<path d="M323.042 247.537H315.419V367.334H323.042V247.537Z" fill="#40414D"/>
<path d="M145.996 237.787H322.145C325.418 237.787 328.557 239.212 330.872 241.748C333.186 244.285 334.486 247.725 334.486 251.312V253.107H133.654V251.312C133.654 247.725 134.955 244.285 137.269 241.748C139.584 239.212 142.723 237.787 145.996 237.787Z" fill="#DFE6F5"/>
<path opacity="0.1" d="M145.435 237.787H321.584C324.857 237.787 327.996 239.212 330.311 241.748C332.625 244.285 333.925 247.725 333.925 251.312V253.107H133.093V251.312C133.093 247.725 134.394 244.285 136.708 241.748C139.023 239.212 142.162 237.787 145.435 237.787Z" fill="black"/>
<path d="M145.996 234.995H322.145C325.418 234.995 328.557 236.42 330.872 238.957C333.186 241.493 334.486 244.934 334.486 248.521V250.316H133.654V248.521C133.654 244.934 134.955 241.493 137.269 238.957C139.584 236.42 142.723 234.995 145.996 234.995Z" fill="#DFE6F5"/>
<path d="M234.07 225.245C242.494 225.245 249.323 217.761 249.323 208.529C249.323 199.297 242.494 191.813 234.07 191.813C225.646 191.813 218.817 199.297 218.817 208.529C218.817 217.761 225.646 225.245 234.07 225.245Z" fill="#FFD77C" stroke="#FFAB50" stroke-miterlimit="10"/>
<path d="M234.07 221.778C240.747 221.778 246.16 215.846 246.16 208.529C246.16 201.212 240.747 195.28 234.07 195.28C227.394 195.28 221.981 201.212 221.981 208.529C221.981 215.846 227.394 221.778 234.07 221.778Z" fill="#FFD77C" stroke="#FFAB50" stroke-miterlimit="10"/>
<path d="M234.07 218.624C239.158 218.624 243.282 214.104 243.282 208.529C243.282 202.954 239.158 198.434 234.07 198.434C228.983 198.434 224.859 202.954 224.859 208.529C224.859 214.104 228.983 218.624 234.07 218.624Z" fill="#FFD77C" stroke="#FFAB50" stroke-miterlimit="10"/>
<path d="M234.07 214.203C236.93 214.203 239.248 211.663 239.248 208.529C239.248 205.395 236.93 202.855 234.07 202.855C231.211 202.855 228.892 205.395 228.892 208.529C228.892 211.663 231.211 214.203 234.07 214.203Z" fill="#FFD77C" stroke="#FFAB50" stroke-miterlimit="10"/>
<path d="M225.173 234.301C233.597 234.301 240.426 226.817 240.426 217.585C240.426 208.353 233.597 200.869 225.173 200.869C216.749 200.869 209.92 208.353 209.92 217.585C209.92 226.817 216.749 234.301 225.173 234.301Z" fill="#FFD77C" stroke="#FFAB50" stroke-miterlimit="10"/>
<path d="M225.173 230.833C231.85 230.833 237.262 224.902 237.262 217.585C237.262 210.268 231.85 204.336 225.173 204.336C218.497 204.336 213.084 210.268 213.084 217.585C213.084 224.902 218.497 230.833 225.173 230.833Z" fill="#FFD77C" stroke="#FFAB50" stroke-miterlimit="10"/>
<path d="M225.173 227.68C230.26 227.68 234.384 223.16 234.384 217.585C234.384 212.01 230.26 207.49 225.173 207.49C220.086 207.49 215.962 212.01 215.962 217.585C215.962 223.16 220.086 227.68 225.173 227.68Z" fill="#FFD77C" stroke="#FFAB50" stroke-miterlimit="10"/>
<path d="M225.173 223.259C228.033 223.259 230.351 220.719 230.351 217.585C230.351 214.451 228.033 211.91 225.173 211.91C222.313 211.91 219.995 214.451 219.995 217.585C219.995 220.719 222.313 223.259 225.173 223.259Z" fill="#FFD77C" stroke="#FFAB50" stroke-miterlimit="10"/>
<path d="M242.967 234.301C251.392 234.301 258.221 226.817 258.221 217.585C258.221 208.353 251.392 200.869 242.967 200.869C234.543 200.869 227.714 208.353 227.714 217.585C227.714 226.817 234.543 234.301 242.967 234.301Z" fill="#FFD77C" stroke="#FFAB50" stroke-miterlimit="10"/>
<path d="M242.967 230.833C249.644 230.833 255.057 224.902 255.057 217.585C255.057 210.268 249.644 204.336 242.967 204.336C236.291 204.336 230.878 210.268 230.878 217.585C230.878 224.902 236.291 230.833 242.967 230.833Z" fill="#FFD77C" stroke="#FFAB50" stroke-miterlimit="10"/>
<path d="M242.968 227.68C248.055 227.68 252.179 223.16 252.179 217.585C252.179 212.01 248.055 207.49 242.968 207.49C237.88 207.49 233.756 212.01 233.756 217.585C233.756 223.16 237.88 227.68 242.968 227.68Z" fill="#FFD77C" stroke="#FFAB50" stroke-miterlimit="10"/>
<path d="M242.968 223.259C245.827 223.259 248.145 220.719 248.145 217.585C248.145 214.451 245.827 211.91 242.968 211.91C240.108 211.91 237.79 214.451 237.79 217.585C237.79 220.719 240.108 223.259 242.968 223.259Z" fill="#FFD77C" stroke="#FFAB50" stroke-miterlimit="10"/>
<path d="M202.291 212.716H265.844V215.986C265.844 219.216 265.264 222.414 264.136 225.397C263.009 228.381 261.356 231.092 259.272 233.375C257.188 235.659 254.715 237.47 251.992 238.706C249.27 239.942 246.352 240.578 243.405 240.578H224.73C221.783 240.578 218.865 239.942 216.143 238.706C213.42 237.47 210.947 235.659 208.863 233.375C206.779 231.092 205.126 228.381 203.999 225.397C202.871 222.414 202.291 219.216 202.291 215.986V212.716Z" fill="#D68F7E"/>
<path opacity="0.1" d="M260.111 212.71C259.946 219.974 257.197 226.88 252.45 231.955C247.703 237.029 241.335 239.87 234.704 239.871H222.088C223.928 240.331 225.81 240.566 227.698 240.572H240.409C243.749 240.573 247.056 239.854 250.142 238.454C253.228 237.055 256.032 235.003 258.394 232.415C260.756 229.828 262.63 226.756 263.908 223.375C265.186 219.994 265.844 216.369 265.844 212.71H260.111Z" fill="black"/>
<path d="M319.233 347.132V338.777H153.99V347.132H319.233Z" fill="#40414D"/>
<path d="M92.035 309.6H85.3649V376.107H92.035V309.6Z" fill="#40414D"/>
<path d="M144.717 309.6H138.047V376.107H144.717V309.6Z" fill="#40414D"/>
<path d="M150.057 298.638C150.057 303.077 136.325 306.679 119.383 306.679C102.441 306.679 89.3759 303.083 89.3759 298.638C89.3759 294.193 102.441 290.597 119.383 290.597C136.325 290.597 150.057 294.218 150.057 298.638Z" fill="#F6C6CD"/>
<path d="M80.0299 298.632H150.052V305.333C150.052 307.045 149.431 308.687 148.327 309.898C147.222 311.108 145.724 311.788 144.162 311.788H90.1276C87.4495 311.788 84.8811 310.622 82.9875 308.547C81.0938 306.472 80.0299 303.657 80.0299 300.722V298.632Z" fill="#40414D"/>
<path d="M68.1388 221.735L69.5835 221.378C70.5994 221.126 71.6648 221.327 72.5453 221.937C73.4258 222.547 74.0493 223.515 74.2786 224.628L91.7667 309.533L89.5779 310.074C87.7405 310.529 85.8137 310.165 84.2212 309.063C82.6287 307.96 81.5011 306.21 81.0863 304.196L65.162 226.883C65.0483 226.331 65.0351 225.759 65.1232 225.201C65.2113 224.644 65.399 224.11 65.6755 223.632C65.9521 223.154 66.312 222.74 66.7347 222.414C67.1574 222.089 67.6346 221.858 68.1388 221.735Z" fill="#40414D"/>
<path d="M377.222 377.288H383.892V310.78H377.222V377.288Z" fill="#40414D"/>
<path d="M324.54 377.288H331.21V310.78H324.54V377.288Z" fill="#40414D"/>
<path d="M319.211 299.818C319.211 304.257 332.944 307.86 349.885 307.86C366.827 307.86 379.892 304.263 379.892 299.818C379.892 295.374 366.821 291.759 349.885 291.759C332.949 291.759 319.211 295.38 319.211 299.818Z" fill="#F6C6CD"/>
<path d="M379.129 312.975H325.095C323.533 312.975 322.035 312.295 320.93 311.084C319.826 309.874 319.205 308.232 319.205 306.52V299.818H389.227V301.909C389.227 304.844 388.163 307.658 386.269 309.734C384.376 311.809 381.807 312.975 379.129 312.975Z" fill="#40414D"/>
<path d="M379.689 311.254L377.5 310.713L394.991 225.796C395.22 224.682 395.843 223.715 396.724 223.105C397.604 222.495 398.67 222.294 399.686 222.546L401.13 222.903C402.146 223.154 403.03 223.837 403.586 224.802C404.142 225.767 404.326 226.935 404.096 228.048L388.169 305.373C387.755 307.385 386.629 309.134 385.039 310.237C383.449 311.339 381.525 311.705 379.689 311.254Z" fill="#40414D"/>
<path d="M382.063 273.93L384.032 273.247C384.032 273.247 380.667 248.607 380.7 226.524C380.7 225.909 380.7 225.251 380.7 224.618C380.739 223.241 380.784 221.876 380.846 220.542C380.925 218.833 380.941 217.204 380.93 215.624C381.115 194.358 373.469 185.376 373.469 185.376C373.469 185.376 364.493 171.347 359.114 168.617C358.648 167.019 358.115 164.965 357.644 162.58C357.818 162.451 357.986 162.322 358.149 162.186C360.37 160.38 362.496 158.436 364.516 156.364C367.276 153.53 369.924 150.075 369.778 146.177C369.793 145.798 369.782 145.418 369.744 145.04C369.234 140.337 364.774 136.796 362.973 132.339C361.458 128.595 361.913 124.426 360.589 120.627C359.265 116.828 354.642 113.293 351.153 115.291C349.869 116.028 349.094 117.332 348.023 118.322C345.364 120.781 341.078 121.008 337.443 119.889C333.808 118.77 332.73 114.209 327.648 114.196C328.099 114.362 328.531 114.587 328.933 114.866C328.508 114.788 328.078 114.747 327.648 114.744C328.682 115.102 329.599 115.781 330.288 116.699C330.977 117.616 331.408 118.733 331.53 119.914C331.522 120.062 331.507 120.21 331.485 120.357C329.454 121.555 326.784 120.873 324.349 120.83C321.915 120.787 319.143 122.133 319.385 124.316C319.344 124.564 319.344 124.818 319.385 125.066C319.704 126.72 321.724 127.968 321.971 129.498C321.971 129.541 321.971 129.578 321.971 129.621C317.465 132.089 312.591 133.646 307.582 134.22C307.419 134.22 307.492 134.435 307.727 134.749H307.582C306.667 134.853 313.062 140.392 313.792 140.755C316.462 142.083 319.654 143.061 322.481 144.081L322.728 144.167C321.776 146.592 321.285 149.205 321.286 151.846C321.286 161.313 327.497 169.269 335.906 171.519C337.476 173.529 339.126 175.736 340.629 177.931H340.523C340.523 177.931 330.857 192.022 331.165 213.066C331.138 215.704 331.265 218.34 331.547 220.96C325.331 220.573 311.974 218.777 301.815 210.625C288.11 199.639 272.823 202.934 276.009 209.525C279.196 216.115 295.515 221.605 298.146 222.159C298.393 222.208 298.965 222.356 299.784 222.577C296.541 223.247 294.32 224.421 294.455 226.001C294.718 229.02 308.687 238.635 317.118 239.182C322.689 239.545 329.393 241.426 334.683 243.08C335.193 255.714 332.405 259.501 332.405 259.501C332.405 259.501 333.235 260.06 334.61 260.853L334.021 262.698C330.599 264.862 326.38 267.118 322.543 268.028C317.653 269.129 312.9 270.862 308.384 273.192L289.406 283.244C287.711 284.106 286.245 285.427 285.145 287.082C284.046 288.738 283.35 290.673 283.123 292.705C282.708 296.966 283.88 302.29 290.23 306.513C290.623 309.975 292.553 314.014 297.619 317.715C307.436 324.871 333.235 346.309 336.747 349.235C336.814 354.467 336.186 364.961 330.296 366.596C322.913 368.65 328.854 376.433 334.823 376.126C336.239 376.713 337.781 376.837 339.26 376.482C345.588 374.835 368.779 366.031 370.361 352.862C370.427 352.291 370.457 351.716 370.451 351.141C370.543 348.896 370.032 346.671 368.981 344.741C369.229 345.336 369.43 345.953 369.581 346.585C367.663 341.79 362.99 338.777 359.355 337.081C359.355 337.038 359.355 336.988 359.355 336.945C358.794 336.706 358.233 336.509 357.773 336.331C357.782 335.974 357.758 335.618 357.7 335.267L321.331 307.804C321.331 307.804 337.145 293.523 353.487 295.724C369.828 297.925 372.431 294.673 372.431 294.673C372.431 294.673 380.812 285.937 381.654 275.879L382.181 275.725C382.181 275.725 382.142 275.092 382.063 273.93Z" fill="url(#paint0_linear)"/>
<path d="M337.65 345.46C337.65 345.46 339.137 363.393 331.698 365.57C324.26 367.746 331.205 376.439 337.151 374.792C343.097 373.144 364.925 364.463 366.412 351.43C367.899 338.396 351.535 334.037 351.535 334.037L337.65 345.46Z" fill="#B8616E"/>
<path opacity="0.05" d="M337.65 345.46C337.65 345.46 339.137 363.393 331.698 365.57C324.26 367.746 331.205 376.439 337.151 374.792C343.097 373.144 364.925 364.463 366.412 351.43C367.899 338.396 351.535 334.037 351.535 334.037L337.65 345.46Z" fill="black"/>
<path d="M340.64 346.001C340.64 346.001 342.127 363.934 334.688 366.111C327.25 368.287 334.195 376.98 340.141 375.333C346.088 373.685 367.915 365.004 369.402 351.971C370.889 338.937 354.525 334.578 354.525 334.578L340.64 346.001Z" fill="#B8616E"/>
<path opacity="0.1" d="M356.011 335.132L342.138 346.548C342.138 346.548 342.2 347.323 342.239 348.559C347.479 346.985 358.895 342.804 359.069 336.263C358.071 335.819 357.05 335.441 356.011 335.132Z" fill="black"/>
<path d="M347.333 178.872H341.381V183.765H347.333V178.872Z" fill="#F8BDC5"/>
<path d="M341.633 257.945C341.633 257.945 332.181 266.085 324.417 268.016C319.8 269.11 315.325 270.826 311.093 273.124L293.237 283.072C291.616 283.966 290.225 285.291 289.192 286.927C288.159 288.563 287.517 290.457 287.325 292.435C286.814 297.968 288.845 305.247 300.962 309.575L339.148 344.36L351.052 333.49L310.387 299.259L341.633 278.061V257.945Z" fill="#758AC8"/>
<path opacity="0.1" d="M341.633 257.945C341.633 257.945 332.181 266.085 324.417 268.016C319.8 269.11 315.325 270.826 311.093 273.124L293.237 283.072C291.616 283.966 290.225 285.291 289.192 286.927C288.159 288.563 287.517 290.457 287.325 292.435C286.814 297.968 288.845 305.247 300.962 309.575L339.148 344.36L351.052 333.49L310.387 299.259L341.633 278.061V257.945Z" fill="black"/>
<path d="M336.175 221.538C336.175 221.538 317.825 222.079 304.928 211.209C292.031 200.34 277.653 203.598 280.626 210.121C283.6 216.644 298.976 222.079 301.456 222.62C303.935 223.161 339.642 234.036 339.642 234.036L336.175 221.538Z" fill="#F8BDC5"/>
<path opacity="0.05" d="M336.175 221.538C336.175 221.538 317.825 222.079 304.928 211.209C292.031 200.34 277.653 203.598 280.626 210.121C283.6 216.644 298.976 222.079 301.456 222.62C303.935 223.161 339.642 234.036 339.642 234.036L336.175 221.538Z" fill="black"/>
<path d="M338.161 253.064L332.209 272.633C332.209 272.633 298.735 295.189 296.003 298.177C293.882 300.501 291.044 309.594 300.962 317.198C310.88 324.803 338.155 348.725 338.155 348.725C338.155 348.725 358.984 343.806 357.498 334.585L323.278 307.411C323.278 307.411 338.155 293.271 353.532 295.454C368.908 297.636 371.388 294.365 371.388 294.365C371.388 294.365 383.292 281.307 379.32 268.827C375.348 256.347 338.161 253.064 338.161 253.064Z" fill="#758AC8"/>
<path d="M330.722 164.498C330.722 164.498 347.585 184.608 346.592 190.583C345.599 196.559 359.983 173.191 359.983 173.191C359.983 173.191 355.495 161.234 356.511 148.188L330.722 164.498Z" fill="#F8BDC5"/>
<path opacity="0.1" d="M345.437 182.942C346.587 181.611 347.798 180.345 349.066 179.148C351.604 176.868 353.932 174.321 356.017 171.544C359.489 166.625 372.381 187.848 372.381 187.848C372.381 187.848 380.313 197.629 379.326 221.003C378.338 244.377 380.565 275.627 380.565 275.627L377.564 276.543C375.036 277.467 372.347 277.735 369.708 277.324C367.07 276.913 364.555 275.835 362.362 274.176C358.401 271.176 353.386 268.028 349.571 267.745C342.132 267.204 335.434 262.581 335.434 262.581C335.434 262.581 338.66 254.158 333.701 226.979C328.742 199.799 341.381 180.483 341.381 180.483C341.381 180.483 342.379 186.397 345.437 182.942Z" fill="black"/>
<path d="M382.299 273.174L379.326 274.262L377.559 274.907C375.031 275.832 372.341 276.1 369.703 275.689C367.064 275.278 364.549 274.2 362.356 272.54C358.401 269.546 353.38 266.393 349.566 266.11C342.138 265.563 333.723 259.587 333.723 259.587C333.723 259.587 338.683 252.523 333.723 225.343C328.764 198.164 341.409 178.872 341.409 178.872C341.409 178.872 342.407 184.755 345.465 181.294C346.613 179.964 347.822 178.7 349.089 177.507C351.626 175.226 353.954 172.679 356.039 169.902C359.512 164.984 372.403 186.206 372.403 186.206C372.403 186.206 380.336 195.987 379.348 219.362C379.242 221.821 379.197 224.354 379.191 226.917C379.118 248.791 382.299 273.174 382.299 273.174Z" fill="#D23F35"/>
<path opacity="0.1" d="M354.031 219.909L354.525 231.866C354.525 231.866 328.237 233.495 322.784 227.52C317.331 221.544 337.65 245.096 342.138 246.541C346.351 247.9 357.229 249.099 362.934 249.222C364.564 249.279 366.174 248.816 367.568 247.89C368.962 246.963 370.081 245.612 370.788 244.002C371.453 242.417 371.668 240.65 371.405 238.93C370.412 231.866 371.405 216.644 371.405 216.644L354.031 219.909Z" fill="black"/>
<path d="M354.031 218.821L354.525 230.778C354.525 230.778 328.237 232.407 322.784 226.432C317.331 220.456 297.602 221.778 297.989 226.432C298.236 229.419 311.379 238.93 319.306 239.477C327.233 240.024 337.65 244.008 342.138 245.453C346.351 246.812 357.229 248.011 362.934 248.133C364.564 248.191 366.174 247.728 367.568 246.802C368.962 245.875 370.081 244.524 370.788 242.914C371.453 241.329 371.668 239.562 371.405 237.842C370.412 230.778 371.405 215.556 371.405 215.556L354.031 218.821Z" fill="#F8BDC5"/>
<path opacity="0.1" d="M359.983 184.036C359.983 184.036 348.578 185.665 350.065 204.146C351.551 222.626 353.537 224.255 353.537 224.255C353.537 224.255 370.4 222.626 372.381 222.079C374.361 221.532 373.374 201.428 373.374 201.428C373.374 201.428 372.874 183.495 359.983 184.036Z" fill="black"/>
<path d="M359.983 183.495C359.983 183.495 348.578 185.124 350.065 203.605C351.551 222.085 353.537 223.714 353.537 223.714C353.537 223.714 370.4 222.085 372.381 221.538C374.361 220.991 373.374 200.887 373.374 200.887C373.374 200.887 372.874 182.942 359.983 183.495Z" fill="#D23F35"/>
<path opacity="0.1" d="M355.764 159.85C354.985 155.547 356.583 154.219 357.004 148.71L331.199 165.015C331.199 165.015 334.155 168.543 337.516 173.074C339.017 173.491 340.561 173.697 342.11 173.689C348.87 173.72 352.567 165.765 355.764 159.85Z" fill="black"/>
<path d="M341.628 173.167C351.762 173.167 359.977 164.163 359.977 153.057C359.977 141.951 351.762 132.947 341.628 132.947C331.493 132.947 323.278 141.951 323.278 153.057C323.278 164.163 331.493 173.167 341.628 173.167Z" fill="#F8BDC5"/>
<path opacity="0.1" d="M346.256 146.952C343.451 148.907 343.412 153.327 345.218 156.389C347.024 159.451 350.138 161.473 353.134 163.379C354.003 163.933 354.962 164.504 355.938 164.381C356.689 164.221 357.384 163.836 357.947 163.269C360.043 161.476 362.044 159.553 363.938 157.508C366.664 154.569 369.284 150.948 368.858 146.848C368.375 142.194 364.179 138.689 362.485 134.281C361.06 130.593 361.487 126.455 360.241 122.687C358.996 118.918 354.631 115.432 351.366 117.406C350.16 118.131 349.431 119.428 348.421 120.406C345.919 122.828 341.886 123.068 338.464 121.961C335.042 120.855 334.026 116.336 329.253 116.324C331.625 117.24 333.23 119.951 332.865 122.422C330.952 123.609 328.439 122.932 326.133 122.889C323.828 122.846 321.085 124.26 321.483 126.535C321.831 128.379 324.26 129.75 323.901 131.595C319.687 134.028 315.093 135.571 310.359 136.144C309.5 136.249 315.514 141.726 316.198 142.089C318.706 143.405 321.718 144.37 324.372 145.378C331.581 148.102 338.963 149.073 346.256 146.952Z" fill="black"/>
<path d="M346.256 146.405C343.451 148.36 343.412 152.78 345.218 155.842C347.024 158.904 350.138 160.926 353.134 162.832C354.003 163.385 354.962 163.957 355.938 163.834C356.689 163.674 357.384 163.289 357.947 162.721C360.043 160.929 362.044 159.005 363.938 156.961C366.664 154.022 369.284 150.401 368.858 146.3C368.375 141.647 364.179 138.142 362.485 133.734C361.06 130.046 361.487 125.908 360.241 122.139C358.996 118.371 354.631 114.885 351.366 116.858C350.16 117.584 349.431 118.881 348.421 119.859C345.919 122.281 341.886 122.521 338.464 121.414C335.042 120.307 334.026 115.789 329.253 115.776C331.625 116.692 333.23 119.404 332.865 121.875C330.952 123.062 328.439 122.385 326.133 122.342C323.828 122.299 321.085 123.713 321.483 125.988C321.831 127.832 324.26 129.203 323.901 131.048C319.687 133.481 315.093 135.024 310.359 135.597C309.5 135.702 315.514 141.179 316.198 141.542C318.706 142.858 321.718 143.823 324.372 144.831C331.581 147.561 338.963 148.514 346.256 146.405Z" fill="#916168"/>
<path opacity="0.1" d="M368.106 343.948C368.903 345.961 369.18 348.174 368.908 350.348C367.422 363.393 345.6 372.086 339.647 373.709C336.512 374.57 333.095 372.56 331.665 370.144C332.585 372.984 336.545 375.781 340.147 374.798C346.099 373.168 367.921 364.469 369.408 351.436C369.733 348.851 369.275 346.221 368.106 343.948Z" fill="white"/>
<path d="M210.498 358.77C210.055 357.676 207.755 355.543 196.664 355.082C189.068 354.768 186.482 350.372 185.781 346.081C188.277 345.725 190.23 345.233 190.869 344.55C190.869 344.55 190.835 344.354 190.779 344.003L190.869 343.929C190.384 340.834 190.131 337.701 190.112 334.56C190.097 331.873 190.357 329.192 190.886 326.568C191.195 324.833 191.325 323.066 191.273 321.299C191.335 310.848 187.986 292.478 187.986 292.478L187.526 277.213C187.479 275.308 186.966 273.452 186.039 271.84C185.112 270.229 183.806 268.92 182.258 268.053C181.156 267.428 179.936 267.095 178.696 267.081C178.696 267.081 161.114 264.044 145.289 262.39C144.167 261.401 140.212 258.732 131.147 260.263L125.93 243.529C125.887 243.326 125.857 243.121 125.84 242.914C126.025 240.787 127.321 237.584 133.363 237.381L134.625 238.61C134.625 238.61 134.849 238.125 135.225 237.381C142.72 237.289 183.548 236.834 185.652 237.381C187.969 237.996 208.265 233.041 208.849 232.426C216.736 223.997 185.652 228.085 185.652 228.085C182.595 228.632 172.716 227.981 162.595 227.077C167.605 218.845 172.317 190.903 172.317 190.903C172.317 190.903 190.269 180.987 185.074 175.411C179.879 169.834 164.2 187.805 164.2 187.805C164.2 187.805 157.822 208.259 154.921 214.456C153.799 216.915 152.346 217.419 151.05 217.136C151.639 216.62 152.021 216.312 152.021 216.312C152.021 216.312 139.264 205.154 138.103 200.82C137.887 200.11 137.601 199.427 137.25 198.785C136.639 194.856 135.567 190.989 132.953 188.413C132.514 187.897 132.029 187.429 131.506 187.018C130.799 186.464 129.997 185.985 129.329 185.382C129.705 183.489 130.143 181.521 130.597 179.616C140.066 178.386 147.426 169.779 147.426 159.328C147.425 157.752 147.254 156.181 146.916 154.649C148.331 154.751 149.746 154.451 151.024 153.776C152.302 153.102 153.399 152.077 154.209 150.801C156.122 147.678 156.06 143.423 154.456 140.128C153.792 138.79 152.923 137.588 151.886 136.575C150.233 134.75 148.217 133.37 145.996 132.542C144.072 131.81 141.946 131.373 140.42 129.941C139.738 128.964 139.118 127.937 138.563 126.867C137.923 125.817 137.169 124.855 136.319 124.002C133.514 120.836 129.554 118.887 125.52 118.026C120.606 116.975 115.529 117.35 110.531 117.725C108.663 117.867 106.469 118.229 105.628 120.012C104.994 121.352 105.409 122.957 105.325 124.451C105.061 129.203 100.102 131.828 95.788 132.978C91.474 134.128 86.3298 135.124 84.2485 139.292C82.358 143.054 83.6876 147.616 84.2934 151.84C85.3025 159.256 83.7999 166.82 80.0692 173.105C78.1731 176.284 75.7272 179.112 74.2294 182.524C72.57 186.327 72.1848 190.65 73.1411 194.733C73.4216 195.926 73.8255 197.143 73.6235 198.36C73.394 199.364 72.9432 200.291 72.3108 201.059C69.7312 204.55 66.5209 207.419 62.8813 209.485C59.2418 211.551 55.2517 212.771 51.1617 213.066C51.5052 214.314 52.1764 215.424 53.0915 216.257C54.2541 217.517 55.61 218.543 57.0969 219.288C61.0144 221.441 65.1338 223.121 69.3825 224.298C72.2435 225.091 75.2335 225.657 78.145 225.116C81.0565 224.575 83.8951 222.749 85.09 219.86C85.7856 218.187 85.8866 216.294 86.5037 214.591C87.7323 211.185 90.7784 208.978 92.8372 206.058C92.1439 213.583 91.8162 221.143 91.8555 228.706C91.8555 231.073 91.8555 233.207 91.8555 235.186C91.8555 243.725 91.2945 249.615 86.4644 260.282C85.8888 261.403 85.6365 262.689 85.7408 263.97C85.6357 264.663 85.6969 265.373 85.9182 266.032C86.1395 266.69 86.5133 267.274 87.003 267.727C86.6663 269.854 86.503 272.01 86.5149 274.17C86.4476 281.941 88.843 292.373 101.544 295.017L124.157 293.787C124.157 293.787 156.049 286.969 164.744 291.943C165.462 292.11 166.105 292.542 166.568 293.166C167.03 293.791 167.283 294.57 167.285 295.374C167.258 295.891 167.185 296.403 167.067 296.904C166.824 298.515 166.732 300.149 166.792 301.78C166.752 312.231 168.806 335.949 168.806 335.949V346.007C167.358 348.393 165.574 351.922 165.804 354.522C165.804 354.577 165.804 354.639 165.804 354.694C165.804 354.75 165.804 354.848 165.838 354.922C165.872 354.995 165.838 355.057 165.877 355.125C165.916 355.192 165.911 355.254 165.928 355.321C165.945 355.389 165.973 355.469 166.001 355.536C166.029 355.604 166.04 355.647 166.062 355.702C166.085 355.758 166.135 355.862 166.175 355.936L166.242 356.065C166.309 356.184 166.384 356.297 166.466 356.403C169.367 360.092 183.857 367.23 188.502 366.941C193.433 366.633 209.954 367.556 210.537 359.502C210.611 359.262 210.597 358.999 210.498 358.77Z" fill="url(#paint1_linear)"/>
<path d="M169.277 343.204C169.277 343.204 162.545 352.426 165.35 356.114C168.155 359.803 182.179 366.855 186.667 366.566C191.436 366.258 207.424 367.18 207.985 359.188C207.985 359.188 209.107 355.5 194.521 354.885C179.935 354.27 184.423 337.671 184.423 337.671L169.277 343.204Z" fill="#594C76"/>
<path opacity="0.1" d="M89.0561 265.741C89.0561 265.741 82.3243 290.947 102.52 295.251L124.398 294.021C124.398 294.021 155.252 287.258 163.667 292.177C163.667 292.177 167.033 292.791 165.911 297.71C164.789 302.628 167.594 335.826 167.594 335.826V346.893C167.594 346.893 186.667 346.893 188.911 344.433C188.911 344.433 187.228 334.597 188.911 326.605C190.594 318.612 186.106 293.406 186.106 293.406L185.663 278.233C185.63 276.359 185.142 274.527 184.249 272.928C183.355 271.329 182.089 270.019 180.581 269.135C179.519 268.518 178.338 268.189 177.136 268.175C177.136 268.175 138.989 261.413 125.526 262.642C112.062 263.872 89.0561 265.741 89.0561 265.741Z" fill="black"/>
<path d="M89.0561 265.126C89.0561 265.126 82.3243 290.332 102.52 294.636L124.398 293.406C124.398 293.406 155.252 286.644 163.667 291.562C163.667 291.562 167.033 292.177 165.911 297.095C164.789 302.013 167.594 335.212 167.594 335.212V346.278C167.594 346.278 186.667 346.278 188.911 343.819C188.911 343.819 187.228 333.982 188.911 325.99C190.594 317.998 186.106 292.792 186.106 292.792L185.663 277.619C185.63 275.744 185.142 273.913 184.249 272.313C183.355 270.714 182.089 269.405 180.581 268.52C179.519 267.903 178.338 267.574 177.136 267.561C177.136 267.561 138.989 260.798 125.526 262.028C112.062 263.257 89.0561 265.126 89.0561 265.126Z" fill="#8B9CD1"/>
<path d="M146.837 215.329C146.837 215.329 151.325 221.476 154.13 215.329C156.935 209.181 163.106 188.893 163.106 188.893C163.106 188.893 178.253 171.064 183.301 176.597C188.35 182.13 170.96 191.967 170.96 191.967C170.96 191.967 164.789 229.469 159.179 230.083C153.569 230.698 145.155 230.083 145.155 230.083L142.35 223.321L146.837 215.329Z" fill="#F8BDC5"/>
<path opacity="0.05" d="M146.837 215.329C146.837 215.329 151.325 221.476 154.13 215.329C156.935 209.181 163.106 188.893 163.106 188.893C163.106 188.893 178.253 171.064 183.301 176.597C188.35 182.13 170.96 191.967 170.96 191.967C170.96 191.967 164.789 229.469 159.179 230.083C153.569 230.698 145.155 230.083 145.155 230.083L142.35 223.321L146.837 215.329Z" fill="black"/>
<path d="M126.642 184.589C126.642 184.589 136.74 197.5 137.862 201.803C138.984 206.107 151.325 217.173 151.325 217.173C151.325 217.173 142.35 224.55 144.033 228.239C145.715 231.928 132.252 215.943 132.252 215.943L116.544 190.737L126.642 184.589Z" fill="#EB6475"/>
<path opacity="0.1" d="M126.642 184.589C126.642 184.589 136.74 197.5 137.862 201.803C138.984 206.107 151.325 217.173 151.325 217.173C151.325 217.173 142.35 224.55 144.033 228.239C145.715 231.928 132.252 215.943 132.252 215.943L116.544 190.737L126.642 184.589Z" fill="black"/>
<path d="M133.374 169.834C133.374 169.834 128.325 187.663 128.325 194.426C128.325 201.188 107.008 192.581 107.568 188.893C108.129 185.204 119.91 171.679 120.471 166.146C121.032 160.613 133.374 169.834 133.374 169.834Z" fill="#F8BDC5"/>
<path opacity="0.1" d="M116.544 182.13C116.544 182.13 96.9099 176.597 94.105 207.951C91.3001 239.305 96.3489 242.994 87.9342 262.052C79.5194 281.11 145.154 264.511 145.154 264.511C145.154 264.511 141.789 260.208 131.13 262.052L126.081 245.453C126.081 245.453 124.398 238.076 133.935 238.076C143.472 238.076 138.984 216.558 138.984 216.558C138.984 216.558 133.935 198.114 131.13 196.27C128.325 194.426 123.276 183.36 116.544 182.13Z" fill="black"/>
<path d="M116.544 180.901C116.544 180.901 96.9099 175.367 94.105 206.722C91.3001 238.076 96.3489 241.764 87.9342 260.823C79.5194 279.881 145.154 263.282 145.154 263.282C145.154 263.282 141.789 258.978 131.13 260.823L126.081 244.223C126.081 244.223 124.398 236.846 133.935 236.846C143.472 236.846 138.984 215.328 138.984 215.328C138.984 215.328 133.935 196.885 131.13 195.041C128.325 193.196 123.276 182.13 116.544 180.901Z" fill="#EB6475"/>
<path d="M136.179 225.165C136.179 225.165 177.13 230.083 183.862 228.854C183.862 228.854 213.931 224.796 206.302 233.157C205.741 233.772 186.106 238.69 183.862 238.076C181.618 237.461 133.935 238.076 133.935 238.076L133.374 231.928L136.179 225.165Z" fill="#F8BDC5"/>
<path opacity="0.1" d="M104.764 209.795L134.496 239.305C134.496 239.305 140.106 227.009 141.789 227.009C143.472 227.009 121.593 190.737 121.593 190.737C121.593 190.737 115.983 183.36 112.617 187.048C109.252 190.737 99.1538 188.278 104.764 209.795Z" fill="black"/>
<path d="M104.203 208.566L133.935 238.076C133.935 238.076 139.545 225.78 141.228 225.78C142.911 225.78 121.032 189.508 121.032 189.508C121.032 189.508 115.422 182.13 112.056 185.819C108.691 189.508 98.5929 187.048 104.203 208.566Z" fill="#EB6475"/>
<path d="M128.325 180.901C138.549 180.901 146.837 171.817 146.837 160.613C146.837 149.408 138.549 140.325 128.325 140.325C118.101 140.325 109.812 149.408 109.812 160.613C109.812 171.817 118.101 180.901 128.325 180.901Z" fill="#F8BDC5"/>
<path opacity="0.1" d="M144.537 155.516C147.679 156.875 151.527 155.246 153.379 152.153C155.23 149.061 155.174 144.85 153.614 141.567C152.055 138.284 149.171 135.898 145.99 134.656C144.061 133.906 141.912 133.476 140.431 131.927C139.494 130.949 138.939 129.627 138.238 128.435C135.618 123.959 130.945 121.316 126.193 120.277C121.442 119.238 116.528 119.606 111.692 119.975C109.885 120.117 107.765 120.473 106.946 122.244C106.334 123.572 106.733 125.164 106.654 126.646C106.402 131.361 101.605 133.974 97.4148 135.105C93.2243 136.236 88.3661 137.3 86.3242 141.456C84.4954 145.188 85.8025 149.713 86.3691 153.905C87.338 161.229 85.8898 168.692 82.2851 174.949C80.4507 178.103 78.0889 180.907 76.636 184.294C75.0287 188.08 74.6564 192.355 75.5813 196.405C75.8562 197.592 76.2433 198.797 76.0526 200.002C75.8327 200.992 75.3978 201.91 74.7848 202.676C72.3262 206.124 69.235 208.968 65.7109 211.024C62.1868 213.081 58.3082 214.304 54.3257 214.615C54.9652 217.253 57.2933 218.919 59.5092 220.148C63.2903 222.28 67.2751 223.946 71.3908 225.116C74.1564 225.903 77.0511 226.462 79.8673 225.927C82.6834 225.393 85.4266 223.579 86.5991 220.714C87.2722 219.054 87.3732 217.179 87.9679 215.482C89.3086 211.677 92.8821 209.377 94.8006 205.879C96.635 202.535 97.3475 202.141 97.8131 198.281C98.2787 194.42 99.3053 190.251 102.2 187.983C105.229 185.604 109.493 186.059 112.859 187.885C116.225 189.71 118.306 188.997 121.116 191.678C126.047 196.372 131.565 200.268 137.503 203.248C136.942 197.887 136.039 191.905 132.067 188.715C130.945 187.798 129.525 187.098 128.931 185.696C127.983 183.464 129.604 180.741 128.869 178.411C128.134 176.081 125.341 175.22 124.101 173.105C123.046 171.31 123.332 168.869 124.32 167.025C125.307 165.181 126.866 163.816 128.42 162.525C129.8 161.381 131.199 160.264 132.617 159.174C133.897 158.283 135.047 157.185 136.027 155.916C136.588 155.073 136.959 153.229 137.738 152.633C139.702 151.145 142.72 154.735 144.537 155.516Z" fill="black"/>
<path d="M143.976 154.901C147.118 156.26 150.966 154.631 152.817 151.538C154.669 148.446 154.613 144.235 153.053 140.952C151.494 137.669 148.61 135.283 145.429 134.042C143.5 133.292 141.351 132.861 139.87 131.312C138.933 130.334 138.378 129.013 137.677 127.82C135.057 123.344 130.384 120.701 125.632 119.662C120.881 118.623 115.966 118.992 111.131 119.361C109.324 119.502 107.204 119.859 106.385 121.629C105.773 122.957 106.172 124.549 106.093 126.031C105.841 130.746 101.044 133.359 96.8538 134.49C92.6632 135.622 87.8051 136.685 85.7631 140.841C83.9343 144.573 85.2414 149.098 85.808 153.291C86.7769 160.614 85.3287 168.077 81.7241 174.335C79.8897 177.488 77.5279 180.292 76.075 183.679C74.4677 187.465 74.0954 191.74 75.0203 195.791C75.2952 196.977 75.6823 198.182 75.4915 199.387C75.2717 200.378 74.8367 201.295 74.2237 202.061C71.7651 205.509 68.6739 208.353 65.1498 210.409C61.6257 212.466 57.7471 213.689 53.7646 214.001C54.4042 216.638 56.7323 218.304 58.9481 219.534C62.7293 221.665 66.7141 223.331 70.8298 224.501C73.5954 225.288 76.4901 225.848 79.3062 225.313C82.1224 224.778 84.8656 222.964 86.038 220.099C86.7112 218.439 86.8122 216.564 87.4068 214.867C88.7476 211.062 92.321 208.763 94.2396 205.265C96.074 201.92 96.7865 201.527 97.2521 197.666C97.7177 193.805 98.7443 189.637 101.639 187.368C104.668 184.989 108.932 185.444 112.298 187.27C115.664 189.096 117.745 188.382 120.555 191.063C125.486 195.757 131.004 199.653 136.942 202.633C136.381 197.272 135.477 191.29 131.506 188.1C130.384 187.184 128.964 186.483 128.37 185.081C127.422 182.849 129.043 180.126 128.308 177.796C127.573 175.466 124.78 174.605 123.54 172.49C122.485 170.695 122.771 168.254 123.759 166.41C124.746 164.566 126.305 163.201 127.859 161.91C129.239 160.766 130.638 159.649 132.056 158.559C133.336 157.669 134.486 156.57 135.466 155.301C136.027 154.459 136.398 152.614 137.177 152.018C139.141 150.53 142.159 154.121 143.976 154.901Z" fill="#916168"/>
<g opacity="0.1">
<path opacity="0.1" d="M183.784 342.515C183.826 340.879 184.041 339.253 184.423 337.671L184.143 337.775C183.863 339.336 183.742 340.926 183.784 342.515Z" fill="white"/>
<path opacity="0.1" d="M186.667 365.336C182.179 365.625 168.155 358.573 165.35 354.885C164.981 354.385 164.755 353.778 164.699 353.139C164.617 353.657 164.632 354.189 164.744 354.7C164.856 355.212 165.062 355.693 165.35 356.114C168.155 359.803 182.179 366.855 186.667 366.566C191.436 366.258 207.424 367.18 207.985 359.188C208.026 358.968 207.999 358.738 207.906 358.537C206.621 365.902 191.318 365.035 186.667 365.336Z" fill="white"/>
</g>
<path d="M209.387 181.823H208.826V207.029H209.387V181.823Z" fill="#FFD77C" stroke="#FFAB50" stroke-width="0.25" stroke-miterlimit="10"/>
<path d="M209.948 181.823H209.387V207.029H209.948V181.823Z" fill="#FFD77C" stroke="#FFAB50" stroke-width="0.25" stroke-miterlimit="10"/>
<path d="M210.509 181.823H209.948V207.029H210.509V181.823Z" fill="#FFD77C" stroke="#FFAB50" stroke-width="0.25" stroke-miterlimit="10"/>
<path d="M211.07 181.823H210.509V207.029H211.07V181.823Z" fill="#FFD77C" stroke="#FFAB50" stroke-width="0.25" stroke-miterlimit="10"/>
<path d="M211.631 181.823H211.07V207.029H211.631V181.823Z" fill="#FFD77C" stroke="#FFAB50" stroke-width="0.25" stroke-miterlimit="10"/>
<path d="M212.192 181.823H211.631V207.029H212.192V181.823Z" fill="#FFD77C" stroke="#FFAB50" stroke-width="0.25" stroke-miterlimit="10"/>
<path d="M212.753 181.823H212.192V207.029H212.753V181.823Z" fill="#FFD77C" stroke="#FFAB50" stroke-width="0.25" stroke-miterlimit="10"/>
</g>
<defs>
<filter id="filter0_d" x="10.7985" y="3.05176e-05" width="500.209" height="412.002" filterUnits="userSpaceOnUse" color-interpolation-filters="sRGB">
<feFlood flood-opacity="0" result="BackgroundImageFix"/>
<feColorMatrix in="SourceAlpha" type="matrix" values="0 0 0 0 0 0 0 0 0 0 0 0 0 0 0 0 0 0 127 0"/>
<feOffset dy="4"/>
<feGaussianBlur stdDeviation="2"/>
<feColorMatrix type="matrix" values="0 0 0 0 0 0 0 0 0 0 0 0 0 0 0 0 0 0 0.25 0"/>
<feBlend mode="normal" in2="BackgroundImageFix" result="effect1_dropShadow"/>
<feBlend mode="normal" in="SourceGraphic" in2="effect1_dropShadow" result="shape"/>
</filter>
<linearGradient id="paint0_linear" x1="329.797" y1="376.71" x2="329.797" y2="114.196" gradientUnits="userSpaceOnUse">
<stop stop-color="#808080" stop-opacity="0.25"/>
<stop offset="0.54" stop-color="#808080" stop-opacity="0.12"/>
<stop offset="1" stop-color="#808080" stop-opacity="0.1"/>
</linearGradient>
<linearGradient id="paint1_linear" x1="60858" y1="179381" x2="60858" y2="78040.2" gradientUnits="userSpaceOnUse">
<stop stop-color="#808080" stop-opacity="0.25"/>
<stop offset="0.54" stop-color="#808080" stop-opacity="0.12"/>
<stop offset="1" stop-color="#808080" stop-opacity="0.1"/>
</linearGradient>
<clipPath id="clip0">
<rect width="507" height="404" fill="white"/>
</clipPath>
</defs>
</svg>
