<svg width="132" height="128" viewBox="0 0 132 128" fill="none" xmlns="http://www.w3.org/2000/svg">
<path fill-rule="evenodd" clip-rule="evenodd" d="M6.12074 61.2834L20.7189 66.2513L35.2868 61.2834C35.4977 59.6072 35.4675 57.8361 35.1288 56.0046C34.8202 54.2938 34.2404 52.5315 33.3519 50.7429C32.6517 49.3347 31.6279 47.7364 30.3706 46.0859C24.5585 38.431 13.8376 29.6702 8.13091 33.3942C2.52967 37.0574 3.47069 51.6242 6.12074 61.2834Z" fill="#F9F6F6"/>
<path fill-rule="evenodd" clip-rule="evenodd" d="M50.9621 19.4078L46.4285 19.2768L32.9601 18.8958C32.1846 18.8715 31.5444 18.2831 31.5444 17.5488V10.8533H49.2384C51.4692 11.1275 52.6142 11.9413 52.9645 13.1389C53.4188 14.6932 52.5397 16.8936 50.9621 19.4078Z" fill="#E29D7B"/>
<path fill-rule="evenodd" clip-rule="evenodd" d="M83.6736 20.3483L130.585 21.6961C131.36 21.7221 132 21.0914 132 20.3483V10.853H80.3383C78.1775 13.1684 77.2891 17.4971 81.9344 20.3048L83.6736 20.3483Z" fill="#E29D7B"/>
<path fill-rule="evenodd" clip-rule="evenodd" d="M132 1.35085V10.8533H31.5447V4.15771C31.5447 3.41399 32.1848 2.82587 32.9603 2.81049L130.585 0.00067732C131.36 -0.0235809 132 0.607134 132 1.35085Z" fill="#E29D7B"/>
<path fill-rule="evenodd" clip-rule="evenodd" d="M14.47 61.2834H27.3364C27.8332 59.3481 27.6677 57.2054 26.7267 55.3133C24.8972 51.6239 20.8091 50.3282 17.587 52.4363C14.8315 54.2335 13.6117 57.9399 14.47 61.2834Z" fill="#FFD772"/>
<path fill-rule="evenodd" clip-rule="evenodd" d="M47.5509 61.2834C47.7768 59.7368 50.0579 59.5987 50.9992 57.7843C55.9605 48.2373 49.0117 41.6278 49.1396 33.5584C49.1321 32.8413 47.6262 32.1502 47.7092 31.4763C47.1671 31.1308 46.6025 30.8802 46.0002 30.7421C40.6173 29.5067 34.2932 37.8441 30.3706 46.0863C28.6615 49.378 32.7646 61.2837 34.6168 61.2837L41.3812 66.2516L47.5509 61.2834Z" fill="#F9F6F6"/>
<path fill-rule="evenodd" clip-rule="evenodd" d="M31.4546 117.365L56.1412 122.678L80.8353 117.365C91.9024 112.034 100.688 101.597 104.912 88.6544L58.1965 81.7426L7.37805 88.6544C11.6015 101.597 20.3875 112.034 31.4546 117.365Z" fill="#FBC7B8"/>
<path fill-rule="evenodd" clip-rule="evenodd" d="M107.223 61.2849L90.6443 67.2888L78.6526 61.2849C75.8347 55.4762 77.9888 53.4312 81.9274 46.7936C82.4559 46.504 82.987 46.2359 83.5235 45.9919C85.4622 45.102 87.4358 44.5139 89.4037 44.2394C89.4037 44.2394 89.4063 44.2364 89.4063 44.2394C92.5802 43.7974 95.7273 44.1846 98.6463 45.4736C99.1217 45.6809 99.5891 45.9126 100.049 46.1714C104.407 48.61 108.482 53.23 107.223 61.2849Z" fill="#E29D7B"/>
<path fill-rule="evenodd" clip-rule="evenodd" d="M80.8353 117.365C91.9024 112.034 100.688 101.597 104.912 88.6544H94.3117C90.0805 101.597 81.3022 112.034 70.2351 117.365H80.8353Z" fill="#FBB49E"/>
<path fill-rule="evenodd" clip-rule="evenodd" d="M30.3706 46.0862C24.5585 38.4313 13.8376 29.6705 8.13093 33.3945C7.28015 33.9474 6.57993 34.7594 6.01532 35.7617C11.9553 34.2151 21.3737 42.1378 26.689 49.1448C27.9464 50.7864 28.9702 52.3848 29.6704 53.793C30.5513 55.5813 31.1309 57.3438 31.4472 59.0632C31.5828 59.8149 31.6731 60.5577 31.7107 61.2837H35.2868C35.4977 59.6075 35.4676 57.8364 35.1288 56.0049C34.8202 54.2941 34.2404 52.5318 33.352 50.7432C32.6517 49.3348 31.628 47.7364 30.3706 46.0862Z" fill="#E5E4ED"/>
<path fill-rule="evenodd" clip-rule="evenodd" d="M47.5963 33.5584C47.5888 33.4806 47.5888 33.4028 47.5888 33.325C47.5886 33.4031 47.5885 33.4806 47.5963 33.5584ZM49.2375 56.2726C54.1989 46.7255 47.4607 41.6369 47.5963 33.5587C47.5888 33.4809 47.5888 33.4031 47.5888 33.3253C47.5888 33.2217 47.5888 33.1179 47.5963 33.0055C47.6038 32.4872 47.6489 31.9774 47.7092 31.4763C47.167 31.1308 46.6024 30.8802 46.0002 30.7421C45.1796 30.5518 44.3362 30.5864 43.4857 30.8113C43.463 31.2 43.4481 31.5976 43.4556 32.0035C43.3277 39.9261 49.8021 44.9719 45.3755 54.1731C46.9716 55.9528 47.9278 58.6485 47.5512 61.2837C47.7768 59.7371 48.2962 58.087 49.2375 56.2726Z" fill="#E5E4ED"/>
<path fill-rule="evenodd" clip-rule="evenodd" d="M26.7266 55.3136C24.8972 51.6242 20.809 50.3285 17.5869 52.4366C16.676 53.0327 15.923 53.8362 15.3658 54.7781C18.2794 53.8104 21.4866 55.2186 23.0451 58.3636C23.5042 59.2966 23.7829 60.2903 23.8806 61.2837H27.3363C27.8334 59.3484 27.6679 57.2057 26.7266 55.3136Z" fill="#FBBA58"/>
<path fill-rule="evenodd" clip-rule="evenodd" d="M107.223 61.2835C108.481 53.2312 104.407 48.6088 100.048 46.1724C99.5891 45.9132 99.1222 45.6798 98.6478 45.4724C97.4508 44.9453 96.2086 44.5651 94.9513 44.3406C99.1222 47.1918 102.864 52.4189 101.652 61.2832H107.223V61.2835Z" fill="#CE8B6B"/>
<path fill-rule="evenodd" clip-rule="evenodd" d="M35.2868 61.2834H47.5509C48.1382 57.2054 45.5258 52.9721 42.2884 52.2375C39.0511 51.4944 36.514 53.188 35.1287 56.0043C35.4675 57.8364 35.4977 59.6076 35.2868 61.2834Z" fill="#FFD772"/>
<path fill-rule="evenodd" clip-rule="evenodd" d="M47.5509 61.2834C47.9273 58.6481 46.9711 55.9525 45.3752 54.1728C44.502 53.1965 43.4329 52.4966 42.2885 52.2375C40.4515 51.8141 38.8479 52.1771 37.5455 53.0755C38.1629 53.0324 43.1091 57.5423 43.0338 61.2834H47.5509Z" fill="#FBBA58"/>
<path fill-rule="evenodd" clip-rule="evenodd" d="M7.37809 88.6544H104.912C106.689 83.22 107.66 77.3451 107.66 71.2279L58.9419 67.288L4.63007 71.2281C4.63007 77.3451 5.60125 83.22 7.37809 88.6544Z" fill="#F37C7C"/>
<path fill-rule="evenodd" clip-rule="evenodd" d="M104.912 88.6543C106.689 83.2199 107.66 77.345 107.66 71.2278H97.3609H97.0523C97.0523 77.3447 96.0811 83.2199 94.3117 88.6543H104.912Z" fill="#EE6161"/>
<path fill-rule="evenodd" clip-rule="evenodd" d="M35.2868 61.2834H27.3366H14.47H6.12073H4.32893C1.94984 61.2834 0 63.5214 0 66.2513C0 68.9902 1.94984 71.2278 4.32893 71.2278H4.63005H107.66H107.961C110.34 71.2278 112.29 68.9902 112.29 66.2513C112.29 63.5211 110.34 61.2834 107.961 61.2834H107.223H78.6519H70.8747H63.105H55.3279H47.5509H35.2868Z" fill="#365E7D"/>
<path fill-rule="evenodd" clip-rule="evenodd" d="M112.29 66.2513C112.29 63.5211 110.34 61.2834 107.961 61.2834H107.223H97.3605C99.7396 61.2834 101.689 63.5211 101.689 66.2513C101.689 68.9902 99.7396 71.2278 97.3605 71.2278H107.66H107.961C110.34 71.2281 112.29 68.9902 112.29 66.2513Z" fill="#2B4D66"/>
<path fill-rule="evenodd" clip-rule="evenodd" d="M47.5509 61.2834H57.8049C58.0307 59.7368 58.5502 58.0867 59.4987 56.2723C64.4526 46.7252 57.7219 41.6366 57.85 33.5584C57.7221 25.4887 64.4526 20.3912 59.4987 10.853H49.2373C53.7544 19.5445 48.5672 24.547 47.7089 31.4763C47.6486 31.9774 47.6035 32.4871 47.596 33.0054C47.5885 33.1957 47.5885 33.377 47.596 33.5584C47.4604 41.6366 54.1986 46.7255 49.2373 56.2723C48.2962 58.087 47.7767 59.7371 47.5509 61.2834Z" fill="#FFD772"/>
<path fill-rule="evenodd" clip-rule="evenodd" d="M60.6207 61.2834H73.3592C73.5851 59.7368 74.1046 58.0867 75.0456 56.2723C80.0069 46.7252 73.2765 41.6366 73.4044 33.5584C73.2765 25.4887 80.0069 20.3912 75.0456 10.853H62.3071C67.2684 20.3912 60.5302 25.4887 60.6584 33.5584C60.5305 41.6366 67.2684 46.7255 62.3071 56.2723C61.3661 58.087 60.8466 59.7371 60.6207 61.2834Z" fill="#FFD772"/>
<path fill-rule="evenodd" clip-rule="evenodd" d="M70.8747 61.2834H78.6519C78.8777 59.7368 79.3972 58.0867 80.3382 56.2723C82.2504 52.5919 82.4237 49.5765 81.9269 46.7945C81.1289 42.3623 78.6142 38.5263 78.697 33.5584C78.6142 28.6076 81.1212 24.7804 81.9194 20.348C82.4239 17.566 82.2582 14.542 80.3385 10.853H72.5688C77.5227 20.3912 70.7919 25.4887 70.9201 33.5584C70.7922 41.6366 77.5227 46.7255 72.5688 56.2723C71.62 58.087 71.1005 59.7371 70.8747 61.2834Z" fill="#FBBA58"/>
<path fill-rule="evenodd" clip-rule="evenodd" d="M55.3281 61.2834H63.1053C63.3237 59.7368 63.8506 58.0867 64.7916 56.2723C69.7455 46.7252 63.0148 41.6366 63.1429 33.5584C63.0151 25.4887 69.7455 20.3912 64.7916 10.853H57.0145C61.9683 20.3912 55.2376 25.4887 55.3658 33.5584C55.2379 41.6366 61.9683 46.7255 57.0145 56.2723C56.0735 58.087 55.554 59.7371 55.3281 61.2834Z" fill="#FBBA58"/>
<path fill-rule="evenodd" clip-rule="evenodd" d="M32.5991 128H79.6909C80.3233 128 80.8353 127.412 80.8353 126.687V117.365H31.4547V126.687C31.4547 127.412 31.9667 128 32.5991 128Z" fill="#F37C7C"/>
<path fill-rule="evenodd" clip-rule="evenodd" d="M80.8353 126.687V117.365H70.2348V126.687C70.2348 127.412 69.7153 128 69.0904 128H79.6909C80.3233 128 80.8353 127.412 80.8353 126.687Z" fill="#EE6161"/>
<path d="M92.7532 54.2817C92.5913 54.3305 92.4292 54.3518 92.2698 54.3518C91.3775 54.3518 90.5647 53.6569 90.3391 52.6206C89.6353 49.3933 88.6326 48.1955 85.6871 46.8575C85.1001 46.5891 84.2929 46.1336 83.5238 45.9919C85.4626 45.102 87.4361 44.5139 89.404 44.2394C89.404 44.2394 89.4066 44.2364 89.4066 44.2394C91.5923 45.6079 93.348 47.5796 94.2032 51.5109C94.4716 52.7365 93.8208 53.9767 92.7532 54.2817Z" fill="#CE8B6B"/>
<path d="M16.8061 82.2292C16.2984 82.2292 15.7911 82.007 15.403 81.5618L15.3956 81.5532C14.6175 80.6607 14.6175 79.2135 15.3956 78.3206C16.1734 77.4281 17.4346 77.4281 18.2127 78.3206C18.9908 79.2132 18.9944 80.6648 18.2166 81.5573C17.8265 82.0046 17.316 82.2292 16.8061 82.2292Z" fill="#FFD772"/>
<path d="M29.9209 82.2292C29.4133 82.2292 28.9059 82.007 28.5179 81.5618L28.5104 81.5532C27.7324 80.6607 27.7324 79.2135 28.5104 78.3206C29.2883 77.4281 30.5495 77.4281 31.3276 78.3206C32.1056 79.2132 32.1092 80.6648 31.3314 81.5573C30.9414 82.0046 30.4309 82.2292 29.9209 82.2292Z" fill="#FFD772"/>
<path d="M43.0281 82.2292C42.5205 82.2292 42.0131 82.007 41.6251 81.5618L41.6176 81.5532C40.8395 80.6607 40.8395 79.2135 41.6176 78.3206C42.3954 77.4281 43.6567 77.4281 44.4347 78.3206C45.2128 79.2132 45.2164 80.6648 44.4386 81.5573C44.0488 82.0046 43.5383 82.2292 43.0281 82.2292Z" fill="#FFD772"/>
<path d="M56.1433 82.2292C55.6357 82.2292 55.1283 82.007 54.7403 81.5618L54.7329 81.5532C53.9548 80.6607 53.9548 79.2135 54.7329 78.3206C55.5107 77.4281 56.7719 77.4281 57.55 78.3206C58.3281 79.2132 58.3317 80.6648 57.5538 81.5573C57.1638 82.0046 56.6533 82.2292 56.1433 82.2292Z" fill="#FFD772"/>
<path d="M69.258 82.2292C68.7503 82.2292 68.243 82.007 67.855 81.5618L67.8475 81.5532C67.0694 80.6607 67.0694 79.2135 67.8475 78.3206C68.6253 77.4281 69.8865 77.4281 70.6646 78.3206C71.4427 79.2132 71.4463 80.6648 70.6685 81.5573C70.2787 82.0046 69.7682 82.2292 69.258 82.2292Z" fill="#FFD772"/>
<path d="M82.3654 82.2292C81.8578 82.2292 81.3504 82.007 80.9624 81.5618L80.9549 81.5532C80.1768 80.6607 80.1768 79.2135 80.9549 78.3206C81.7327 77.4281 82.9939 77.4281 83.772 78.3206C84.5501 79.2132 84.5537 80.6648 83.7759 81.5573C83.3861 82.0046 82.8756 82.2292 82.3654 82.2292Z" fill="#FFD772"/>
<path d="M95.4804 82.2292C94.9728 82.2292 94.4654 82.007 94.0774 81.5618L94.0699 81.5532C93.2919 80.6607 93.2919 79.2135 94.0699 78.3206C94.8478 77.4281 96.109 77.4281 96.887 78.3206C97.6651 79.2132 97.6687 80.6648 96.8909 81.5573C96.5008 82.0046 95.9904 82.2292 95.4804 82.2292Z" fill="#FFD772"/>
<path d="M132 8.56763H31.5447V10.8532V13.1388H52.9648H78.9371H132V8.56763Z" fill="#CE8B6B"/>
</svg>
