<svg width="140" height="129" viewBox="0 0 140 129" fill="none" xmlns="http://www.w3.org/2000/svg">
<path d="M70 119.799C58.4431 119.799 47.8369 118.061 39.5294 115.163C40.7246 119.965 42.9701 123.596 45.7388 124.759C51.9878 127.382 60.5516 129 70 129C79.4483 129 88.0122 127.382 94.2612 124.759C97.0299 123.596 99.2754 119.965 100.471 115.163C92.1631 118.061 81.5569 119.799 70 119.799Z" fill="url(#paint0_linear)"/>
<path d="M140 60.6058C140 40.8422 0 40.8422 0 60.6058C0 80.3695 16.4505 123.188 70 123.188C123.549 123.188 140 80.3695 140 60.6058Z" fill="url(#paint1_linear)"/>
<path d="M140 60.6058C140 80.3694 0 80.3694 0 60.6058C0 40.8422 140 40.8422 140 60.6058Z" fill="url(#paint2_linear)"/>
<path d="M134.219 60.6058C134.219 75.1709 5.78061 75.1709 5.78061 60.6058C5.78061 46.0407 134.219 46.0407 134.219 60.6058Z" fill="url(#paint3_linear)"/>
<path d="M8.35551 63.9704C15.0695 68.0823 34.0886 70.5167 55.3719 71.2732C57.5101 71.3493 59.6707 69.4562 61.8443 69.4986C63.7832 69.5362 65.7322 71.5122 67.6839 71.523C95.1484 71.6731 123.178 69.1553 131.644 63.9707C115.188 53.8923 24.8116 53.8923 8.35551 63.9704Z" fill="url(#paint4_linear)"/>
<path d="M1.22705 71.0412C1.79748 73.6587 2.57956 76.4151 3.5936 79.2382C23.1667 92.1701 116.833 92.1701 136.406 79.2382C137.42 76.4151 138.203 73.6587 138.773 71.0412C138.693 70.9439 138.613 70.8465 138.525 70.7506C124.552 86.0273 15.448 86.0273 1.47548 70.7506C1.38764 70.8465 1.30748 70.9439 1.22705 71.0412Z" fill="url(#paint5_linear)"/>
<path d="M5.78061 84.6043C6.62692 86.4553 7.57398 88.3141 8.63112 90.1626C33.6908 99.7859 106.309 99.7859 131.369 90.1626C132.426 88.3141 133.373 86.4553 134.219 84.6043C111.509 95.8781 28.4905 95.8781 5.78061 84.6043Z" fill="url(#paint6_linear)"/>
<path d="M114.935 68.6787C102.252 70.6669 84.8801 71.615 67.7252 71.5233C65.9515 71.5138 64.1801 69.5412 62.4164 69.5094C60.0559 69.467 57.7091 71.3565 55.3895 71.2743C44.1607 70.8758 33.561 70.0108 25.0655 68.679C28.5463 61.4401 34.3 55.2246 41.5526 50.6961C49.5518 45.6992 59.3792 42.7545 70 42.7545C80.6208 42.7545 90.4482 45.6992 98.4475 50.6961C105.7 55.2243 111.454 61.4398 114.935 68.6787Z" fill="url(#paint7_linear)"/>
<path d="M107.864 69.6274C103.87 62.7172 97.9863 56.7666 90.8013 52.2802C86.2137 49.4145 81.0943 47.1464 75.5956 45.6066C65.7857 42.8596 55.294 43.6867 46.1223 48.1639C44.542 48.9354 43.0165 49.7812 41.5526 50.6955C34.3 55.224 28.5463 61.4396 25.0655 68.6785C47.0889 72.1312 83.2501 72.4471 107.864 69.6274Z" fill="url(#paint8_linear)"/>
<path d="M98.5364 70.5077C94.5516 63.8494 88.8067 58.1065 81.8275 53.7486C77.2754 50.9049 72.1994 48.6499 66.749 47.1109C58.2774 44.719 49.1724 45.9652 41.6698 50.6228C41.6305 50.647 41.5915 50.6713 41.5526 50.6958C34.3 55.2243 28.5463 61.4398 25.0655 68.6787C44.4426 71.7162 74.7644 72.3258 98.5364 70.5077Z" fill="url(#paint9_linear)"/>
<path d="M88.9266 71.0956C84.9534 64.6185 79.3054 59.0276 72.4758 54.7631C68.2462 52.1211 63.5641 49.987 58.5497 48.4634C52.8615 46.7351 46.6939 47.4975 41.6308 50.6471C41.6047 50.6632 41.5786 50.6794 41.5528 50.6959C34.3003 55.2244 28.5466 61.4399 25.0658 68.6788C33.5619 70.0106 44.1618 70.8755 55.3912 71.274C57.5197 71.3496 59.671 70.0139 61.8347 70.056C63.8074 70.0942 65.7901 71.5127 67.7759 71.5233C74.9066 71.5601 82.0746 71.4176 88.9266 71.0956Z" fill="url(#paint10_linear)"/>
<path d="M78.7552 71.4379C74.9173 65.968 69.8444 61.2184 63.8658 57.4855C59.2782 54.6198 54.1589 52.3516 48.6602 50.8118C48.3824 50.734 48.0178 50.6777 47.6003 50.6381C43.7964 50.2767 40.0244 51.5028 37.0199 53.8998C31.8934 57.9899 27.7853 63.022 25.0652 68.6787C33.5572 70.0099 44.1511 70.8747 55.3747 71.2731C57.4346 71.3462 59.5159 69.7305 61.6091 69.7724C63.6522 69.8131 65.7072 71.5121 67.765 71.5227C71.4349 71.5419 75.1141 71.5138 78.7552 71.4379Z" fill="url(#paint11_linear)"/>
<path d="M69.4263 71.528C65.943 67.3207 61.6895 63.6232 56.8397 60.5949C52.2521 57.7292 47.1328 55.461 41.6341 53.9212C41.6223 53.9179 41.6105 53.9145 41.5987 53.9115C39.3504 53.2841 36.9474 53.8894 35.19 55.4454C30.9126 59.2325 27.4529 63.7133 25.0655 68.6784C37.0465 70.5568 53.2121 71.5062 69.4263 71.528Z" fill="url(#paint12_linear)"/>
<path d="M35.5957 51.2173C28.14 53.7074 22.0075 59.1645 18.7024 66.4424C18.5569 66.7631 18.4141 67.0865 18.2769 67.41C20.1663 67.8313 22.2348 68.2212 24.45 68.58C25.0864 66.5299 25.85 64.522 26.7417 62.558C28.5177 58.6458 31.0679 55.2355 34.1836 52.4833C34.706 52.0215 35.2443 51.5787 35.7975 51.1545C35.7308 51.176 35.6624 51.195 35.5957 51.2173Z" fill="url(#paint13_linear)"/>
<path d="M49.0357 44.2293C43.2408 45.1384 37.962 47.6647 33.7263 51.4097C30.6106 54.1619 28.0604 57.5722 26.2843 61.4845C25.2549 63.7515 24.3957 66.0771 23.7067 68.4585C24.2118 68.5421 24.7224 68.6258 25.2439 68.7066C26.9459 68.9715 28.7302 69.2169 30.5859 69.4456C30.7347 68.974 30.8925 68.5058 31.0567 68.0393C31.8527 65.04 32.9173 62.1186 34.2561 59.2902C35.5216 56.6133 37.1604 54.1678 39.1039 52.0011C42.1458 48.6086 45.9332 45.9024 50.198 44.0718C49.8106 44.1175 49.4233 44.1685 49.0357 44.2293Z" fill="url(#paint14_linear)"/>
<path d="M57.1639 41.1553C49.7137 42.3282 43.0733 45.9317 38.2804 51.2095C36.3369 53.3485 34.698 55.7631 33.4326 58.406C31.7498 61.9161 30.4926 65.5693 29.669 69.341C29.971 69.3795 30.2784 69.4155 30.5859 69.454C32.4992 69.6851 34.4867 69.8973 36.54 70.0872C37.251 67.0918 38.2804 64.1846 39.62 61.3877C40.3837 59.7949 44.9252 52.8329 45.788 51.7505C50.1173 46.3006 56.07 42.4584 62.7557 40.7443C60.9033 40.7284 59.0336 40.8614 57.1639 41.1553Z" fill="url(#paint15_linear)"/>
<path d="M66.7745 39.3662C58.1604 39.659 50.2545 43.7358 44.9839 50.456C44.1961 51.4571 43.4686 52.5195 42.8043 53.6377C39.7984 58.696 37.7012 64.2144 36.5428 70.0869C38.8157 70.3044 41.1682 70.4941 43.5784 70.6614C44.0789 68.3475 44.75 66.1013 45.5873 63.9305C46.1037 62.4127 46.6853 60.9164 47.3392 59.4461C48.9424 55.8489 51.1714 52.6673 53.8753 50.0182C58.2812 45.7044 63.9526 42.8044 70.2251 41.8284C73.3633 41.3385 76.5004 41.3552 79.5411 41.836C75.5876 40.0843 71.2416 39.2128 66.7745 39.3662Z" fill="url(#paint16_linear)"/>
<path d="M69.6761 41.1135C63.4035 42.1134 57.7321 45.0843 53.3263 49.5037C50.6223 52.2178 48.3933 55.4772 46.7902 59.1625C45.1925 62.8419 44.0039 66.673 43.2325 70.6268C43.3478 70.6354 43.4631 70.6438 43.5784 70.6524C45.5963 70.7974 47.659 70.9212 49.7527 71.0306C50.4782 68.357 51.4223 65.7469 52.5799 63.2091C52.7298 62.8394 52.8843 62.4713 53.0435 62.1049C54.7235 58.2342 57.3042 54.9728 60.4863 52.5541C61.4748 51.6952 62.5169 50.8952 63.6094 50.1627C67.4718 47.5791 71.9435 45.8129 76.7557 45.0667C81.5846 44.3186 86.4149 44.6345 90.9358 45.9088C84.7401 41.6751 77.21 39.9086 69.6761 41.1135Z" fill="url(#paint17_linear)"/>
<path d="M105.788 54.5941C104.577 53.2696 103.268 52.0622 101.882 50.9803C94.8679 45.487 85.809 43.1056 76.7557 44.5361C71.9435 45.2973 67.4718 47.0987 63.6094 49.7338C59.0086 52.8792 55.2753 57.2097 52.8788 62.3768C51.5804 65.1764 50.5373 68.0653 49.7494 71.0294C49.8867 71.0378 50.0239 71.0462 50.1612 71.0518C51.6798 71.1273 53.2203 71.1901 54.7688 71.2467C59.7221 58.1495 71.6056 48.9224 85.4807 48.9224C93.5477 48.9224 100.941 52.0421 106.692 57.227C106.762 56.2926 106.465 55.3336 105.788 54.5941Z" fill="url(#paint18_linear)"/>
<path d="M51.2059 46.613C51.5886 45.5508 51.0511 44.3744 50.0055 43.9856C48.9599 43.5969 47.8017 44.1429 47.4191 45.205C47.0364 46.2672 47.5739 47.4434 48.6195 47.8324C49.6654 48.2211 50.8233 47.6751 51.2059 46.613Z" fill="url(#paint19_linear)"/>
<path d="M44.7591 48.3488C43.9336 48.0421 43.0195 48.4729 42.7173 49.3117C42.415 50.1502 42.8394 51.0787 43.6652 51.3857C44.4909 51.6928 45.4047 51.2617 45.707 50.4229C46.0089 49.5844 45.5845 48.6558 44.7591 48.3488Z" fill="url(#paint20_linear)"/>
<path d="M50.7895 52.3035C50.2918 52.1186 49.7406 52.3785 49.5586 52.884C49.3764 53.3896 49.6322 53.9495 50.1299 54.1344C50.6276 54.3193 51.1788 54.0596 51.3608 53.5541C51.5431 53.0483 51.2872 52.4886 50.7895 52.3035Z" fill="url(#paint21_linear)"/>
<path d="M59.6024 49.0353C58.4956 49.158 57.6962 50.1691 57.817 51.2937C57.9378 52.418 58.9331 53.23 60.0402 53.1074C61.147 52.9847 61.9464 51.9736 61.8256 50.849C61.7049 49.7244 60.7095 48.9126 59.6024 49.0353Z" fill="url(#paint22_linear)"/>
<path d="M62.4913 43.6184C61.6176 43.7155 60.9865 44.5135 61.0817 45.4014C61.1772 46.2889 61.9629 46.93 62.8369 46.8333C63.7107 46.7362 64.3418 45.9381 64.2465 45.0503C64.151 44.1624 63.3651 43.5214 62.4913 43.6184Z" fill="url(#paint23_linear)"/>
<path d="M55.4968 44.0679C54.97 44.1264 54.5896 44.6074 54.6469 45.1428C54.7046 45.6779 55.1781 46.0644 55.7052 46.0061C56.232 45.9476 56.6124 45.4666 56.5551 44.9312C56.4977 44.3958 56.0236 44.0093 55.4968 44.0679Z" fill="url(#paint24_linear)"/>
<path d="M53.4893 52.826C52.7196 53.121 52.3309 53.9944 52.6216 54.7763C52.912 55.5581 53.7718 55.953 54.5415 55.6577C55.3113 55.3627 55.7 54.4893 55.4093 53.7074C55.1186 52.9255 54.2591 52.5307 53.4893 52.826Z" fill="url(#paint25_linear)"/>
<path d="M54.5734 48.4087C53.9656 48.6419 53.659 49.3312 53.8882 49.9485C54.1177 50.5659 54.7963 50.8774 55.404 50.6445C56.0118 50.4114 56.3184 49.7221 56.0892 49.1047C55.8597 48.4874 55.1811 48.1756 54.5734 48.4087Z" fill="url(#paint26_linear)"/>
<path d="M50.1508 51.388C50.5172 51.2474 50.702 50.832 50.5639 50.4597C50.4255 50.0874 50.0165 49.8998 49.65 50.04C49.2836 50.1806 49.0988 50.5961 49.2369 50.9683C49.3753 51.3406 49.7846 51.5285 50.1508 51.388Z" fill="url(#paint27_linear)"/>
<path d="M73.3499 45.9532C73.7325 44.8911 73.195 43.7146 72.1494 43.3259C71.1038 42.9372 69.9456 43.4832 69.563 44.5453C69.1803 45.6075 69.7178 46.7839 70.7634 47.1726C71.809 47.5616 72.9669 47.0156 73.3499 45.9532Z" fill="url(#paint28_linear)"/>
<path d="M66.903 47.6896C66.0775 47.3829 65.1634 47.8137 64.8612 48.6525C64.5589 49.4913 64.9833 50.4196 65.8088 50.7266C66.6342 51.0336 67.5483 50.6025 67.8506 49.7637C68.1528 48.9252 67.7284 47.9966 66.903 47.6896Z" fill="url(#paint29_linear)"/>
<path d="M72.9334 51.6445C72.4357 51.4593 71.8845 51.7192 71.7025 52.225C71.5202 52.7306 71.776 53.2905 72.2737 53.4754C72.7714 53.6606 73.3226 53.4007 73.5046 52.8951C73.6869 52.3893 73.4311 51.8294 72.9334 51.6445Z" fill="url(#paint30_linear)"/>
<path d="M84.5995 47.1678C83.4927 47.2905 82.6933 48.3016 82.8141 49.4262C82.9349 50.5505 83.9303 51.3626 85.0374 51.2399C86.1442 51.1172 86.9436 50.1061 86.8228 48.9815C86.702 47.8572 85.7066 47.0451 84.5995 47.1678Z" fill="url(#paint31_linear)"/>
<path d="M84.011 44.4906C83.9154 43.6031 83.1298 42.962 82.2558 43.059C81.3817 43.1561 80.7509 43.9541 80.8461 44.8417C80.9417 45.7296 81.7273 46.3704 82.6014 46.2736C83.4754 46.1766 84.1065 45.3782 84.011 44.4906Z" fill="url(#paint32_linear)"/>
<path d="M77.6407 43.4087C77.1139 43.4673 76.7334 43.9483 76.7908 44.4837C76.8484 45.0188 77.322 45.4053 77.849 45.3467C78.3758 45.2881 78.7563 44.8068 78.6989 44.2717C78.6413 43.7369 78.1675 43.3504 77.6407 43.4087Z" fill="url(#paint33_linear)"/>
<path d="M75.6332 52.1668C74.8634 52.4618 74.4747 53.3352 74.7654 54.1171C75.0559 54.899 75.9156 55.2938 76.6854 54.9985C77.4551 54.7035 77.8438 53.8302 77.5531 53.0483C77.2624 52.2664 76.4029 51.8718 75.6332 52.1668Z" fill="url(#paint34_linear)"/>
<path d="M76.7172 47.7496C76.1095 47.9827 75.8028 48.672 76.032 49.2891C76.2615 49.9065 76.9401 50.2179 77.5479 49.9851C78.1557 49.752 78.4623 49.0627 78.2331 48.4456C78.0036 47.8282 77.325 47.5167 76.7172 47.7496Z" fill="url(#paint35_linear)"/>
<path d="M72.2946 50.7287C72.6611 50.5882 72.8458 50.1727 72.7078 49.8005C72.5694 49.4282 72.1604 49.2405 71.7939 49.3808C71.4274 49.5213 71.2427 49.9368 71.3808 50.3091C71.5191 50.6816 71.9281 50.8693 72.2946 50.7287Z" fill="url(#paint36_linear)"/>
<path d="M67.1048 42.4712C67.7864 42.7247 68.541 42.3686 68.7905 41.6765C69.0401 40.9841 68.6898 40.2175 68.0082 39.9641C67.3266 39.7106 66.5719 40.0664 66.3224 40.7588C66.0729 41.4514 66.4231 42.218 67.1048 42.4712Z" fill="url(#paint37_linear)"/>
<path d="M60.5256 42.4742C60.6442 42.1446 60.4775 41.7799 60.1531 41.6592C59.8286 41.5387 59.4695 41.708 59.3509 42.0376C59.2324 42.3672 59.399 42.7319 59.7234 42.8526C60.0476 42.9731 60.4067 42.8038 60.5256 42.4742Z" fill="url(#paint38_linear)"/>
<path d="M68.1534 45.2326C68.1158 44.8838 67.8072 44.632 67.4638 44.6699C67.1204 44.7081 66.8725 45.0215 66.9101 45.3704C66.9477 45.7192 67.2563 45.971 67.5997 45.9331C67.9428 45.8949 68.191 45.5815 68.1534 45.2326Z" fill="url(#paint39_linear)"/>
<path d="M75.9162 42.0498C75.8786 41.701 75.5701 41.4492 75.2267 41.4871C74.8833 41.5253 74.6354 41.8387 74.673 42.1876C74.7106 42.5364 75.0194 42.7882 75.3626 42.7503C75.7057 42.7121 75.9536 42.3987 75.9162 42.0498Z" fill="url(#paint40_linear)"/>
<path d="M60.1904 44.2617C60.001 43.752 59.4407 43.4949 58.9389 43.6873C58.4371 43.8797 58.184 44.4488 58.3734 44.9583C58.5628 45.468 59.1231 45.7251 59.6246 45.5327C60.1264 45.3406 60.3798 44.7714 60.1904 44.2617Z" fill="url(#paint41_linear)"/>
<path d="M64.714 41.4991C64.5644 41.0967 64.1222 40.8937 63.726 41.0454C63.3299 41.1974 63.1301 41.6466 63.2794 42.049C63.429 42.4514 63.8713 42.6544 64.2674 42.5024C64.6638 42.3507 64.8636 41.9015 64.714 41.4991Z" fill="url(#paint42_linear)"/>
<path d="M72.0522 41.4991C71.9026 41.0967 71.4604 40.8937 71.0643 41.0454C70.6682 41.1974 70.4683 41.6466 70.6179 42.049C70.7675 42.4514 71.2098 42.6544 71.6059 42.5024C72.0017 42.3507 72.2016 41.9015 72.0522 41.4991Z" fill="url(#paint43_linear)"/>
<path d="M64.9658 43.7742C65.0558 44.0168 65.3226 44.1392 65.5614 44.0478C65.8003 43.9563 65.9208 43.6853 65.8307 43.4427C65.7407 43.2001 65.4739 43.0777 65.2351 43.1691C64.996 43.2609 64.8754 43.5319 64.9658 43.7742Z" fill="url(#paint44_linear)"/>
<path d="M67.3252 61.7884C66.8709 61.2068 66.1327 60.863 65.3306 60.9823H65.3278C65.2235 60.999 65.1192 61.0046 65.0149 61.0046C64.5924 61.0046 64.1812 60.8766 63.8323 60.6424C63.7596 60.5646 63.3766 60.1748 63.249 60.0724C62.8188 59.5245 62.1965 59.2479 61.5726 59.2479C60.9247 59.2479 60.2769 59.5407 59.8486 60.1262C59.3765 60.7704 58.5941 61.0994 57.8145 60.9823H57.8118C56.3871 60.7704 55.1655 62.014 55.3741 63.4585V63.4613C55.3906 63.5672 55.3961 63.6732 55.3961 63.7791C55.3961 64.4595 55.0804 65.112 54.5314 65.5275C53.9549 65.9653 53.6667 66.6206 53.6667 67.2759C53.6667 67.9117 53.9384 68.5458 54.4768 68.9805C54.5259 69.0441 54.7955 69.0577 54.9094 69.1762C55.0285 69.3003 54.9915 69.5287 55.0291 69.565C55.3217 70.008 55.4535 70.5501 55.3741 71.0933V71.0961C55.3659 71.1566 55.3607 71.2143 55.3579 71.2723C57.372 71.344 59.4064 70.0064 61.4523 70.0479C63.5419 70.0903 65.6435 71.5116 67.7485 71.5225C70.7876 71.5386 73.8338 71.5219 76.8592 71.4728L67.3252 61.7884Z" fill="url(#paint45_linear)"/>
<path d="M69.4757 67.2762C69.4757 67.9342 69.1875 68.5923 68.611 69.0273C67.9769 69.5069 67.6529 70.3017 67.7682 71.0936V71.0964C67.7902 71.2414 67.7957 71.3836 67.7875 71.523C65.66 71.5147 63.5353 71.4868 61.4243 71.4449C60.2577 71.4198 59.0965 71.392 57.9408 71.3585C57.0761 71.3334 56.2141 71.3055 55.3577 71.2748C55.3604 71.2163 55.3659 71.1577 55.3741 71.0964V71.0936C55.4894 70.3017 55.1655 69.5069 54.5314 69.0273C53.9549 68.5923 53.6667 67.9342 53.6667 67.2762C53.6667 66.6209 53.9549 65.9656 54.5314 65.5278C55.0804 65.1123 55.3961 64.4598 55.3961 63.7794C55.3961 63.6734 55.3906 63.5675 55.3741 63.4615V63.4587C55.1655 62.0143 56.3871 60.7706 57.8118 60.9825H57.8145C58.5941 61.0997 59.3765 60.7706 59.8486 60.1265C60.2769 59.5409 60.9247 59.2481 61.5726 59.2481C62.2177 59.2481 62.8628 59.5409 63.2937 60.1265C63.7028 60.6842 64.3451 61.0049 65.0149 61.0049C65.1192 61.0049 65.2235 60.9993 65.3278 60.9825H65.3306C66.7526 60.7706 67.9741 62.0143 67.7682 63.4587V63.4615C67.6529 64.2534 67.9769 65.0482 68.611 65.5278C69.1875 65.9656 69.4757 66.6209 69.4757 67.2762Z" fill="url(#paint46_linear)"/>
<path d="M66.2255 66.6488C66.0992 67.661 65.5914 68.5589 64.8008 69.1835C64.0075 69.8053 63.0247 70.0786 62.031 69.9503C61.1828 69.8416 60.4306 69.4038 59.909 68.7178C59.3847 68.0318 59.1569 67.1814 59.2639 66.3225C59.3326 65.7871 59.813 65.4107 60.34 65.4776C60.8643 65.5445 61.2377 66.0353 61.1718 66.5679C61.1279 66.9109 61.2185 67.2483 61.4271 67.5216C61.6357 67.7948 61.9349 67.9705 62.2726 68.0123C62.7585 68.0765 63.2361 67.9426 63.6232 67.6387C64.0102 67.3347 64.2573 66.8969 64.3177 66.4034C64.4934 65.0008 63.5134 63.7125 62.1298 63.534C61.2294 63.4169 60.3373 63.6651 59.6208 64.2284C58.9016 64.7944 58.4432 65.6087 58.3279 66.5233C58.0534 68.7401 59.3984 70.7924 61.4243 71.4449C60.2577 71.4198 59.0965 71.392 57.9408 71.3585C57.3726 70.6948 56.9388 69.9141 56.6726 69.0692C56.3981 68.1964 56.302 67.2483 56.4228 66.2779C56.7933 63.3193 59.4616 61.2196 62.3714 61.596C64.8063 61.9111 66.533 64.1782 66.2255 66.6488Z" fill="url(#paint47_linear)"/>
<path d="M101.999 70.2214L81.1624 49.0557C80.7698 48.4288 79.8922 48.0172 78.9199 48.1285L78.918 48.1288C78.1368 48.2183 77.3555 47.9648 76.8839 47.469C76.0247 46.5658 74.2964 46.5658 73.4371 47.469C72.9655 47.9648 72.1843 48.218 71.403 48.1288L71.4011 48.1285C69.978 47.9656 68.7562 48.9221 68.964 50.0361L68.9643 50.0375C69.0785 50.649 68.7548 51.2605 68.1215 51.6297C67.0147 52.275 66.9727 53.5443 67.9892 54.2406L68.6478 54.9357C68.894 55.1956 69.0296 55.5578 68.9656 55.9125C68.9651 55.9151 68.9648 55.9176 68.9643 55.9201L68.964 55.9215C68.8523 56.5193 69.1548 57.0698 69.6766 57.4284L83.3486 71.3164C89.8512 71.1064 96.1613 70.7414 101.999 70.2214Z" fill="url(#paint48_linear)"/>
<path d="M82.1992 54.3276C81.5659 54.6968 81.2423 55.3083 81.3565 55.9198L81.3567 55.9212C81.5648 57.0352 80.343 57.9916 78.9196 57.8288L78.9177 57.8285C78.1365 57.739 77.3552 57.9925 76.8836 58.4883C76.0244 59.3914 74.2961 59.3914 73.4368 58.4883C72.9652 57.9925 72.184 57.7393 71.4027 57.8285L71.4008 57.8288C69.9778 57.9916 68.7559 57.0352 68.964 55.9212L68.9643 55.9198C69.0785 55.3083 68.7548 54.6968 68.1215 54.3276C66.9678 53.655 66.9678 52.3023 68.1215 51.6297C68.7548 51.2605 69.0785 50.649 68.9643 50.0375L68.964 50.0361C68.7559 48.9221 69.9778 47.9656 71.4011 48.1285L71.403 48.1288C72.1843 48.2183 72.9655 47.9648 73.4371 47.469C74.2963 46.5658 76.0247 46.5658 76.8839 47.469C77.3555 47.9648 78.1367 48.218 78.918 48.1288L78.9199 48.1285C80.343 47.9656 81.5648 48.9221 81.3567 50.0361L81.3565 50.0375C81.2423 50.649 81.5659 51.2605 82.1992 51.6297C83.353 52.3023 83.353 53.655 82.1992 54.3276Z" fill="url(#paint49_linear)"/>
<path d="M70.2619 54.3599C69.9865 53.6854 69.8905 52.9551 70.0118 52.2075C70.3818 49.9293 73.0509 48.3112 75.9613 48.6009C78.3948 48.8432 80.1228 50.5899 79.8137 52.4947C79.6875 53.2727 79.1815 53.9656 78.3893 54.4458C77.5971 54.926 76.6135 55.1362 75.6192 55.0373C74.7732 54.953 74.0194 54.6159 73.4973 54.0881C72.9749 53.5602 72.7465 52.9046 72.8544 52.2424C72.9213 51.8302 73.4023 51.5388 73.9285 51.5913C74.455 51.6437 74.8273 52.0201 74.7603 52.4323C74.7175 52.6961 74.8083 52.9568 75.0164 53.1673C75.2242 53.3776 75.5245 53.5117 75.8616 53.5451C76.3464 53.5934 76.8262 53.491 77.2128 53.2568C77.599 53.0226 77.8458 52.6846 77.9075 52.3051C78.0835 51.2229 77.1016 50.2302 75.7192 50.093C74.8185 50.0032 73.9269 50.1937 73.209 50.6289C72.4912 51.0642 72.0328 51.6922 71.9183 52.3974C71.6059 54.3195 73.3501 56.0824 75.8059 56.3266C76.3321 56.3791 76.7049 56.755 76.6379 57.1677C76.571 57.5798 76.09 57.8712 75.5635 57.8188C73.0114 57.565 70.9976 56.1627 70.2619 54.3599Z" fill="url(#paint50_linear)"/>
<path d="M65.4349 70.6332C62.0488 70.597 58.6803 71.3903 55.3667 71.2726C51.822 71.1466 48.3401 70.974 44.9675 70.7534L36.9957 62.6557C36.4741 62.2987 36.1722 61.7466 36.2847 61.1499V61.1471C36.2847 61.1471 36.2847 61.1443 36.2847 61.1415C36.3506 60.7874 36.2134 60.4249 35.9663 60.1628L35.3075 59.4684C34.8216 59.1338 34.5773 58.6681 34.5773 58.2052C34.5773 57.7005 34.8655 57.193 35.442 56.8584C36.0733 56.4875 36.3973 55.8769 36.2847 55.2662V55.2634C36.2271 54.9511 36.2792 54.6499 36.422 54.385C36.6333 53.9779 37.0451 53.6516 37.5584 53.4788C37.9098 53.3561 38.3051 53.3087 38.7196 53.3561H38.7224C39.5047 53.4453 40.2843 53.1943 40.7565 52.698C41.1875 52.2463 41.8326 52.0204 42.4804 52.0204C43.1283 52.0204 43.7733 52.2463 44.2043 52.698C44.6106 53.1274 45.253 53.3728 45.9255 53.3728C46.0298 53.3728 46.1341 53.3672 46.2384 53.3561C47.213 53.2445 48.0886 53.6572 48.4812 54.2846L65.4349 70.6332Z" fill="url(#paint51_linear)"/>
<path d="M49.5188 59.556C48.8855 59.9251 48.5619 60.5367 48.6761 61.1482L48.6763 61.1496C48.8844 62.2636 47.6626 63.22 46.2392 63.0572L46.2373 63.0569C45.4561 62.9674 44.6748 63.2208 44.2032 63.7166C43.344 64.6198 41.6157 64.6198 40.7565 63.7166C40.2849 63.2208 39.5036 62.9677 38.7223 63.0569L38.7204 63.0572C37.2974 63.22 36.0755 62.2636 36.2836 61.1496L36.2839 61.1482C36.3981 60.5367 36.0744 59.9251 35.4411 59.556C34.2874 58.8834 34.2874 57.5307 35.4411 56.8581C36.0744 56.4889 36.3981 55.8774 36.2839 55.2659L36.2836 55.2645C36.0755 54.1505 37.2974 53.194 38.7207 53.3569L38.7226 53.3572C39.5039 53.4467 40.2851 53.1932 40.7567 52.6974C41.616 51.7942 43.3443 51.7942 44.2035 52.6974C44.6751 53.1932 45.4561 53.4464 46.2376 53.3572L46.2395 53.3569C47.6626 53.194 48.8844 54.1505 48.6763 55.2645L48.6761 55.2659C48.5619 55.8774 48.8855 56.4889 49.5188 56.8581C50.6726 57.5307 50.6726 58.8834 49.5188 59.556Z" fill="url(#paint52_linear)"/>
<path d="M37.5815 59.5883C37.3062 58.9137 37.2101 58.1834 37.3314 57.4358C37.7015 55.1577 40.3705 53.5395 43.2809 53.8292C45.7144 54.0715 47.4424 55.8182 47.1333 57.7231C47.0071 58.501 46.5012 59.194 45.7089 59.6742C44.9167 60.1543 43.9331 60.3646 42.9388 60.2656C42.0928 60.1814 41.339 59.8443 40.8169 59.3164C40.2945 58.7885 40.0661 58.133 40.174 57.4707C40.241 57.0586 40.7219 56.7672 41.2481 56.8196C41.7746 56.872 42.1469 57.2485 42.0799 57.6606C42.0371 57.9244 42.1279 58.1851 42.336 58.3956C42.5438 58.6059 42.8441 58.74 43.1812 58.7735C43.666 58.8217 44.1459 58.7194 44.5324 58.4852C44.9186 58.2509 45.1654 57.913 45.2272 57.5334C45.4031 56.4512 44.4212 55.4585 43.0388 55.3213C42.1381 55.2315 41.2465 55.422 40.5286 55.8573C39.8108 56.2926 39.3524 56.9205 39.2379 57.6257C38.9255 59.5478 40.6697 61.3107 43.1255 61.555C43.6517 61.6074 44.0245 61.9833 43.9575 62.396C43.8906 62.8081 43.4096 63.0995 42.8831 63.0471C40.331 62.7934 38.3172 61.391 37.5815 59.5883Z" fill="url(#paint53_linear)"/>
<path d="M96.0729 23.2346C95.743 22.3872 96.6497 21.5944 97.4295 22.045C100.185 23.6364 104.229 26.9112 104.229 32.4224C104.229 40.7797 94.3185 41.5678 94.3185 47.7582C94.3185 50.9351 94.7328 53.1291 95.136 54.5122C95.3693 55.3122 94.5634 56.0171 93.8211 55.6605C91.3519 54.474 87.554 51.5787 87.554 44.9937C87.554 35.2371 97.3821 35.3821 97.3821 30.0477C97.3821 27.2617 96.7125 24.8773 96.0729 23.2346Z" fill="url(#paint54_linear)"/>
<path d="M71.5751 0.539967C71.3599 0.166869 71.9358 -0.173326 72.3218 0.0977141C74.9395 1.93644 79.3666 5.82414 79.3666 11.0835C79.3666 18.5505 70.988 20.6644 69.8715 26.4874C68.9684 31.1974 71.0382 35.7825 71.9872 37.5635C72.1519 37.8724 71.7728 38.1859 71.3802 38.0665C68.4932 37.1882 60.7265 33.9337 61.8863 24.5572C63.0099 15.4737 71.4146 15.8886 72.906 10.0116C73.9777 5.79207 72.6573 2.41578 71.5751 0.539967Z" fill="url(#paint55_linear)"/>
<path d="M49.6456 25.22C49.3514 24.5209 49.9679 23.8667 50.568 24.2384C52.6878 25.5515 55.8572 28.2539 56.1963 32.8013C56.7104 39.6975 49.4859 40.3478 49.8669 45.456C50.0623 48.0775 50.5013 49.8877 50.8823 51.0293C51.1027 51.6894 50.5548 52.2713 49.9879 51.9769C48.1029 50.9978 45.1376 48.6087 44.7325 43.175C44.1321 35.1241 51.3536 35.2437 51.0253 30.8418C50.854 28.543 50.2161 26.5752 49.6456 25.22Z" fill="url(#paint56_linear)"/>
<path d="M140 60.6072C140 68.8555 115.602 73.6629 87.176 75.0237L95.4772 70.7266C117.161 69.2878 134.219 65.9137 134.219 60.6072C134.219 58.3653 131.174 56.4663 126.022 54.9159L130.409 52.6433C136.418 54.7932 140 57.4479 140 60.6072Z" fill="url(#paint57_linear)"/>
<path d="M135.661 47.2696L76.5674 79.8137C75.8564 80.3129 76.468 81.5061 77.6728 81.9712C78.227 82.1851 78.7736 82.1812 79.1115 81.9606L139.502 50.5107C140.868 49.6195 139.22 47.2889 137.029 47.0148C136.479 46.9459 135.993 47.0362 135.661 47.2696Z" fill="url(#paint58_linear)"/>
<path d="M131.475 46.0895L73.5096 78.6336C72.7986 79.1327 73.4102 80.3259 74.6151 80.7911C75.1693 81.0049 75.7158 81.001 76.0538 80.7805L135.316 49.3306C136.682 48.4394 135.033 46.1088 132.843 45.8347C132.292 45.7655 131.807 45.8559 131.475 46.0895Z" fill="url(#paint59_linear)"/>
<defs>
<linearGradient id="paint0_linear" x1="70.2882" y1="119.993" x2="70.817" y2="128.581" gradientUnits="userSpaceOnUse">
<stop stop-color="#F8F6FB"/>
<stop offset="1" stop-color="#EFDCFB"/>
</linearGradient>
<linearGradient id="paint1_linear" x1="59.3781" y1="52.2579" x2="100.609" y2="112.727" gradientUnits="userSpaceOnUse">
<stop stop-color="#F8F6FB"/>
<stop offset="1" stop-color="#EFDCFB"/>
</linearGradient>
<linearGradient id="paint2_linear" x1="61.4962" y1="25.7331" x2="71.6747" y2="66.1844" gradientUnits="userSpaceOnUse">
<stop stop-color="#F8F6FB"/>
<stop offset="1" stop-color="#EFDCFB"/>
</linearGradient>
<linearGradient id="paint3_linear" x1="70" y1="88.5188" x2="70" y2="-12.3169" gradientUnits="userSpaceOnUse">
<stop stop-color="#EFDCFB" stop-opacity="0"/>
<stop offset="0.0287" stop-color="#E9D6F7" stop-opacity="0.029"/>
<stop offset="0.2203" stop-color="#C5B5DE" stop-opacity="0.22"/>
<stop offset="0.4138" stop-color="#AA9BCB" stop-opacity="0.414"/>
<stop offset="0.6078" stop-color="#9688BD" stop-opacity="0.608"/>
<stop offset="0.8028" stop-color="#8A7DB5" stop-opacity="0.803"/>
<stop offset="1" stop-color="#8679B2"/>
</linearGradient>
<linearGradient id="paint4_linear" x1="70" y1="57.009" x2="70" y2="66.9237" gradientUnits="userSpaceOnUse">
<stop stop-color="#FFDECF"/>
<stop offset="0.3791" stop-color="#FDC4B0"/>
<stop offset="0.7655" stop-color="#FBAE97"/>
<stop offset="1" stop-color="#FAA68E"/>
</linearGradient>
<linearGradient id="paint5_linear" x1="93.9353" y1="90.4864" x2="105.575" y2="98.1256" gradientUnits="userSpaceOnUse">
<stop stop-color="#FF6359"/>
<stop offset="0.2243" stop-color="#FE5B50"/>
<stop offset="0.5952" stop-color="#FC4637"/>
<stop offset="1" stop-color="#F82814"/>
</linearGradient>
<linearGradient id="paint6_linear" x1="91.8521" y1="101.216" x2="102.554" y2="108.24" gradientUnits="userSpaceOnUse">
<stop stop-color="#FF6359"/>
<stop offset="0.2243" stop-color="#FE5B50"/>
<stop offset="0.5952" stop-color="#FC4637"/>
<stop offset="1" stop-color="#F82814"/>
</linearGradient>
<linearGradient id="paint7_linear" x1="61.2012" y1="46.9105" x2="72.8554" y2="74.8529" gradientUnits="userSpaceOnUse">
<stop stop-color="#FFD945"/>
<stop offset="0.3043" stop-color="#FFCD3E"/>
<stop offset="0.8558" stop-color="#FFAD2B"/>
<stop offset="1" stop-color="#FFA325"/>
</linearGradient>
<linearGradient id="paint8_linear" x1="67.4495" y1="63.0831" x2="79.9023" y2="-11.3067" gradientUnits="userSpaceOnUse">
<stop stop-color="#F82814" stop-opacity="0"/>
<stop offset="1" stop-color="#C0272D"/>
</linearGradient>
<linearGradient id="paint9_linear" x1="62.2317" y1="73.4047" x2="54.6121" y2="8.0407" gradientUnits="userSpaceOnUse">
<stop stop-color="#F82814" stop-opacity="0"/>
<stop offset="1" stop-color="#C0272D"/>
</linearGradient>
<linearGradient id="paint10_linear" x1="57.4096" y1="67.5154" x2="68.1629" y2="7.76042" gradientUnits="userSpaceOnUse">
<stop stop-color="#F82814" stop-opacity="0"/>
<stop offset="1" stop-color="#C0272D"/>
</linearGradient>
<linearGradient id="paint11_linear" x1="53.9349" y1="64.0379" x2="63.6748" y2="35.9676" gradientUnits="userSpaceOnUse">
<stop stop-color="#F82814" stop-opacity="0"/>
<stop offset="1" stop-color="#C0272D"/>
</linearGradient>
<linearGradient id="paint12_linear" x1="47.3436" y1="71.7405" x2="45.8332" y2="47.2047" gradientUnits="userSpaceOnUse">
<stop stop-color="#F82814" stop-opacity="0"/>
<stop offset="1" stop-color="#C0272D"/>
</linearGradient>
<linearGradient id="paint13_linear" x1="25.3625" y1="57.087" x2="28.2548" y2="60.761" gradientUnits="userSpaceOnUse">
<stop stop-color="#FFD945"/>
<stop offset="0.3043" stop-color="#FFCD3E"/>
<stop offset="0.8558" stop-color="#FFAD2B"/>
<stop offset="1" stop-color="#FFA325"/>
</linearGradient>
<linearGradient id="paint14_linear" x1="31.2584" y1="50.9479" x2="37.0131" y2="56.1561" gradientUnits="userSpaceOnUse">
<stop stop-color="#FFD945"/>
<stop offset="0.3043" stop-color="#FFCD3E"/>
<stop offset="0.8558" stop-color="#FFAD2B"/>
<stop offset="1" stop-color="#FFA325"/>
</linearGradient>
<linearGradient id="paint15_linear" x1="39.5376" y1="47.7847" x2="46.1431" y2="54.7454" gradientUnits="userSpaceOnUse">
<stop stop-color="#FFD945"/>
<stop offset="0.3043" stop-color="#FFCD3E"/>
<stop offset="0.8558" stop-color="#FFAD2B"/>
<stop offset="1" stop-color="#FFA325"/>
</linearGradient>
<linearGradient id="paint16_linear" x1="47.7282" y1="42.612" x2="56.4038" y2="53.4944" gradientUnits="userSpaceOnUse">
<stop stop-color="#FFD945"/>
<stop offset="0.3043" stop-color="#FFCD3E"/>
<stop offset="0.8558" stop-color="#FFAD2B"/>
<stop offset="1" stop-color="#FFA325"/>
</linearGradient>
<linearGradient id="paint17_linear" x1="52.3581" y1="37.8694" x2="64.684" y2="54.4159" gradientUnits="userSpaceOnUse">
<stop stop-color="#FFD945"/>
<stop offset="0.3043" stop-color="#FFCD3E"/>
<stop offset="0.8558" stop-color="#FFAD2B"/>
<stop offset="1" stop-color="#FFA325"/>
</linearGradient>
<linearGradient id="paint18_linear" x1="66.0545" y1="42.9057" x2="73.3575" y2="54.8882" gradientUnits="userSpaceOnUse">
<stop stop-color="#FFD945"/>
<stop offset="0.3043" stop-color="#FFCD3E"/>
<stop offset="0.8558" stop-color="#FFAD2B"/>
<stop offset="1" stop-color="#FFA325"/>
</linearGradient>
<linearGradient id="paint19_linear" x1="47.5168" y1="43.3803" x2="53.2155" y2="51.1579" gradientUnits="userSpaceOnUse">
<stop stop-color="#BADA00"/>
<stop offset="0.2269" stop-color="#B0CE00"/>
<stop offset="0.6378" stop-color="#95AE00"/>
<stop offset="1" stop-color="#798C00"/>
</linearGradient>
<linearGradient id="paint20_linear" x1="42.7944" y1="47.8709" x2="47.2933" y2="54.0108" gradientUnits="userSpaceOnUse">
<stop stop-color="#BADA00"/>
<stop offset="0.2269" stop-color="#B0CE00"/>
<stop offset="0.6378" stop-color="#95AE00"/>
<stop offset="1" stop-color="#798C00"/>
</linearGradient>
<linearGradient id="paint21_linear" x1="49.605" y1="52.0154" x2="52.3174" y2="55.7172" gradientUnits="userSpaceOnUse">
<stop stop-color="#BADA00"/>
<stop offset="0.2269" stop-color="#B0CE00"/>
<stop offset="0.6378" stop-color="#95AE00"/>
<stop offset="1" stop-color="#798C00"/>
</linearGradient>
<linearGradient id="paint22_linear" x1="58.0256" y1="48.5423" x2="63.7246" y2="56.3205" gradientUnits="userSpaceOnUse">
<stop stop-color="#BADA00"/>
<stop offset="0.2269" stop-color="#B0CE00"/>
<stop offset="0.6378" stop-color="#95AE00"/>
<stop offset="1" stop-color="#798C00"/>
</linearGradient>
<linearGradient id="paint23_linear" x1="61.2464" y1="43.2291" x2="65.7456" y2="49.3696" gradientUnits="userSpaceOnUse">
<stop stop-color="#BADA00"/>
<stop offset="0.2269" stop-color="#B0CE00"/>
<stop offset="0.6378" stop-color="#95AE00"/>
<stop offset="1" stop-color="#798C00"/>
</linearGradient>
<linearGradient id="paint24_linear" x1="54.7463" y1="43.8334" x2="57.4589" y2="47.5352" gradientUnits="userSpaceOnUse">
<stop stop-color="#BADA00"/>
<stop offset="0.2269" stop-color="#B0CE00"/>
<stop offset="0.6378" stop-color="#95AE00"/>
<stop offset="1" stop-color="#798C00"/>
</linearGradient>
<linearGradient id="paint25_linear" x1="52.6883" y1="52.3729" x2="56.9" y2="58.1208" gradientUnits="userSpaceOnUse">
<stop stop-color="#BADA00"/>
<stop offset="0.2269" stop-color="#B0CE00"/>
<stop offset="0.6378" stop-color="#95AE00"/>
<stop offset="1" stop-color="#798C00"/>
</linearGradient>
<linearGradient id="paint26_linear" x1="53.9412" y1="48.051" x2="57.266" y2="52.5888" gradientUnits="userSpaceOnUse">
<stop stop-color="#BADA00"/>
<stop offset="0.2269" stop-color="#B0CE00"/>
<stop offset="0.6378" stop-color="#95AE00"/>
<stop offset="1" stop-color="#798C00"/>
</linearGradient>
<linearGradient id="paint27_linear" x1="49.2688" y1="49.8245" x2="51.2733" y2="52.5603" gradientUnits="userSpaceOnUse">
<stop stop-color="#BADA00"/>
<stop offset="0.2269" stop-color="#B0CE00"/>
<stop offset="0.6378" stop-color="#95AE00"/>
<stop offset="1" stop-color="#798C00"/>
</linearGradient>
<linearGradient id="paint28_linear" x1="69.6607" y1="42.7205" x2="75.3594" y2="50.4982" gradientUnits="userSpaceOnUse">
<stop stop-color="#BADA00"/>
<stop offset="0.2269" stop-color="#B0CE00"/>
<stop offset="0.6378" stop-color="#95AE00"/>
<stop offset="1" stop-color="#798C00"/>
</linearGradient>
<linearGradient id="paint29_linear" x1="64.9383" y1="47.2117" x2="69.4372" y2="53.3516" gradientUnits="userSpaceOnUse">
<stop stop-color="#BADA00"/>
<stop offset="0.2269" stop-color="#B0CE00"/>
<stop offset="0.6378" stop-color="#95AE00"/>
<stop offset="1" stop-color="#798C00"/>
</linearGradient>
<linearGradient id="paint30_linear" x1="71.7489" y1="51.3562" x2="74.4612" y2="55.0579" gradientUnits="userSpaceOnUse">
<stop stop-color="#BADA00"/>
<stop offset="0.2269" stop-color="#B0CE00"/>
<stop offset="0.6378" stop-color="#95AE00"/>
<stop offset="1" stop-color="#798C00"/>
</linearGradient>
<linearGradient id="paint31_linear" x1="83.0227" y1="46.6748" x2="88.7217" y2="54.453" gradientUnits="userSpaceOnUse">
<stop stop-color="#BADA00"/>
<stop offset="0.2269" stop-color="#B0CE00"/>
<stop offset="0.6378" stop-color="#95AE00"/>
<stop offset="1" stop-color="#798C00"/>
</linearGradient>
<linearGradient id="paint32_linear" x1="81.0111" y1="42.6698" x2="85.5103" y2="48.81" gradientUnits="userSpaceOnUse">
<stop stop-color="#BADA00"/>
<stop offset="0.2269" stop-color="#B0CE00"/>
<stop offset="0.6378" stop-color="#95AE00"/>
<stop offset="1" stop-color="#798C00"/>
</linearGradient>
<linearGradient id="paint33_linear" x1="76.8902" y1="43.1742" x2="79.6025" y2="46.8763" gradientUnits="userSpaceOnUse">
<stop stop-color="#BADA00"/>
<stop offset="0.2269" stop-color="#B0CE00"/>
<stop offset="0.6378" stop-color="#95AE00"/>
<stop offset="1" stop-color="#798C00"/>
</linearGradient>
<linearGradient id="paint34_linear" x1="74.8321" y1="51.7137" x2="79.0435" y2="57.4617" gradientUnits="userSpaceOnUse">
<stop stop-color="#BADA00"/>
<stop offset="0.2269" stop-color="#B0CE00"/>
<stop offset="0.6378" stop-color="#95AE00"/>
<stop offset="1" stop-color="#798C00"/>
</linearGradient>
<linearGradient id="paint35_linear" x1="76.085" y1="47.3921" x2="79.4096" y2="51.9297" gradientUnits="userSpaceOnUse">
<stop stop-color="#BADA00"/>
<stop offset="0.2269" stop-color="#B0CE00"/>
<stop offset="0.6378" stop-color="#95AE00"/>
<stop offset="1" stop-color="#798C00"/>
</linearGradient>
<linearGradient id="paint36_linear" x1="71.4126" y1="49.1655" x2="73.4172" y2="51.901" gradientUnits="userSpaceOnUse">
<stop stop-color="#BADA00"/>
<stop offset="0.2269" stop-color="#B0CE00"/>
<stop offset="0.6378" stop-color="#95AE00"/>
<stop offset="1" stop-color="#798C00"/>
</linearGradient>
<linearGradient id="paint37_linear" x1="69.179" y1="40.029" x2="64.0807" y2="43.6493" gradientUnits="userSpaceOnUse">
<stop stop-color="#FF6359"/>
<stop offset="0.2243" stop-color="#FE5B50"/>
<stop offset="0.5952" stop-color="#FC4637"/>
<stop offset="1" stop-color="#F82814"/>
</linearGradient>
<linearGradient id="paint38_linear" x1="60.7106" y1="41.6901" x2="58.2841" y2="43.4133" gradientUnits="userSpaceOnUse">
<stop stop-color="#FF6359"/>
<stop offset="0.2243" stop-color="#FE5B50"/>
<stop offset="0.5952" stop-color="#FC4637"/>
<stop offset="1" stop-color="#F82814"/>
</linearGradient>
<linearGradient id="paint39_linear" x1="68.3041" y1="44.7357" x2="65.8773" y2="46.4589" gradientUnits="userSpaceOnUse">
<stop stop-color="#FF6359"/>
<stop offset="0.2243" stop-color="#FE5B50"/>
<stop offset="0.5952" stop-color="#FC4637"/>
<stop offset="1" stop-color="#F82814"/>
</linearGradient>
<linearGradient id="paint40_linear" x1="76.0669" y1="41.5529" x2="73.6402" y2="43.276" gradientUnits="userSpaceOnUse">
<stop stop-color="#FF6359"/>
<stop offset="0.2243" stop-color="#FE5B50"/>
<stop offset="0.5952" stop-color="#FC4637"/>
<stop offset="1" stop-color="#F82814"/>
</linearGradient>
<linearGradient id="paint41_linear" x1="60.4811" y1="43.7313" x2="56.7131" y2="46.4071" gradientUnits="userSpaceOnUse">
<stop stop-color="#FF6359"/>
<stop offset="0.2243" stop-color="#FE5B50"/>
<stop offset="0.5952" stop-color="#FC4637"/>
<stop offset="1" stop-color="#F82814"/>
</linearGradient>
<linearGradient id="paint42_linear" x1="64.9438" y1="41.0805" x2="61.969" y2="43.1926" gradientUnits="userSpaceOnUse">
<stop stop-color="#FF6359"/>
<stop offset="0.2243" stop-color="#FE5B50"/>
<stop offset="0.5952" stop-color="#FC4637"/>
<stop offset="1" stop-color="#F82814"/>
</linearGradient>
<linearGradient id="paint43_linear" x1="72.2817" y1="41.0805" x2="69.3073" y2="43.1926" gradientUnits="userSpaceOnUse">
<stop stop-color="#FF6359"/>
<stop offset="0.2243" stop-color="#FE5B50"/>
<stop offset="0.5952" stop-color="#FC4637"/>
<stop offset="1" stop-color="#F82814"/>
</linearGradient>
<linearGradient id="paint44_linear" x1="65.9688" y1="43.1906" x2="64.1754" y2="44.4639" gradientUnits="userSpaceOnUse">
<stop stop-color="#FF6359"/>
<stop offset="0.2243" stop-color="#FE5B50"/>
<stop offset="0.5952" stop-color="#FC4637"/>
<stop offset="1" stop-color="#F82814"/>
</linearGradient>
<linearGradient id="paint45_linear" x1="76.7807" y1="75.8753" x2="51.4555" y2="60.8893" gradientUnits="userSpaceOnUse">
<stop stop-color="#F82814" stop-opacity="0"/>
<stop offset="1" stop-color="#C0272D"/>
</linearGradient>
<linearGradient id="paint46_linear" x1="57.1296" y1="61.9334" x2="65.0238" y2="70.276" gradientUnits="userSpaceOnUse">
<stop stop-color="#F8F6FB"/>
<stop offset="1" stop-color="#EFDCFB"/>
</linearGradient>
<linearGradient id="paint47_linear" x1="56.3714" y1="66.4985" x2="66.2609" y2="66.4985" gradientUnits="userSpaceOnUse">
<stop stop-color="#FAA68E"/>
<stop offset="0.3566" stop-color="#FB9D92"/>
<stop offset="0.9447" stop-color="#FF849B"/>
<stop offset="1" stop-color="#FF819C"/>
</linearGradient>
<linearGradient id="paint48_linear" x1="86.862" y1="65.2947" x2="64.6001" y2="36.2118" gradientUnits="userSpaceOnUse">
<stop stop-color="#F82814" stop-opacity="0"/>
<stop offset="1" stop-color="#C0272D"/>
</linearGradient>
<linearGradient id="paint49_linear" x1="71.0505" y1="48.4969" x2="78.2916" y2="56.1495" gradientUnits="userSpaceOnUse">
<stop stop-color="#F8F6FB"/>
<stop offset="1" stop-color="#EFDCFB"/>
</linearGradient>
<linearGradient id="paint50_linear" x1="72.4846" y1="49.2021" x2="78.128" y2="56.3826" gradientUnits="userSpaceOnUse">
<stop stop-color="#FAA68E"/>
<stop offset="0.3566" stop-color="#FB9D92"/>
<stop offset="0.9447" stop-color="#FF849B"/>
<stop offset="1" stop-color="#FF819C"/>
</linearGradient>
<linearGradient id="paint51_linear" x1="51.7081" y1="67.3977" x2="33.1808" y2="43.1939" gradientUnits="userSpaceOnUse">
<stop stop-color="#F82814" stop-opacity="0"/>
<stop offset="1" stop-color="#C0272D"/>
</linearGradient>
<linearGradient id="paint52_linear" x1="38.3701" y1="53.7252" x2="45.6112" y2="61.3779" gradientUnits="userSpaceOnUse">
<stop stop-color="#F8F6FB"/>
<stop offset="1" stop-color="#EFDCFB"/>
</linearGradient>
<linearGradient id="paint53_linear" x1="39.7982" y1="54.4158" x2="45.4416" y2="61.5964" gradientUnits="userSpaceOnUse">
<stop stop-color="#FAA68E"/>
<stop offset="0.3566" stop-color="#FB9D92"/>
<stop offset="0.9447" stop-color="#FF849B"/>
<stop offset="1" stop-color="#FF819C"/>
</linearGradient>
<linearGradient id="paint54_linear" x1="90.8473" y1="36.5412" x2="113.762" y2="47.2769" gradientUnits="userSpaceOnUse">
<stop stop-color="#E87264" stop-opacity="0"/>
<stop offset="1" stop-color="#F8DFBE"/>
</linearGradient>
<linearGradient id="paint55_linear" x1="63.9331" y1="17.171" x2="81.0881" y2="21.1446" gradientUnits="userSpaceOnUse">
<stop stop-color="#E87264" stop-opacity="0"/>
<stop offset="0.1575" stop-color="#E97869" stop-opacity="0.158"/>
<stop offset="0.3778" stop-color="#EC8B78" stop-opacity="0.378"/>
<stop offset="0.6353" stop-color="#F0A991" stop-opacity="0.635"/>
<stop offset="0.9188" stop-color="#F6D2B3" stop-opacity="0.919"/>
<stop offset="1" stop-color="#F8DFBE"/>
</linearGradient>
<linearGradient id="paint56_linear" x1="45.1544" y1="36.0747" x2="57.6496" y2="40.8683" gradientUnits="userSpaceOnUse">
<stop stop-color="#E87264" stop-opacity="0"/>
<stop offset="1" stop-color="#F8DFBE"/>
</linearGradient>
<linearGradient id="paint57_linear" x1="115.659" y1="71.5924" x2="110.31" y2="60.9234" gradientUnits="userSpaceOnUse">
<stop stop-color="#EFDCFB" stop-opacity="0"/>
<stop offset="0.0287" stop-color="#E9D6F7" stop-opacity="0.029"/>
<stop offset="0.2203" stop-color="#C5B5DE" stop-opacity="0.22"/>
<stop offset="0.4138" stop-color="#AA9BCB" stop-opacity="0.414"/>
<stop offset="0.6078" stop-color="#9688BD" stop-opacity="0.608"/>
<stop offset="0.8028" stop-color="#8A7DB5" stop-opacity="0.803"/>
<stop offset="1" stop-color="#8679B2"/>
</linearGradient>
<linearGradient id="paint58_linear" x1="106.761" y1="62.7025" x2="109.568" y2="67.1245" gradientUnits="userSpaceOnUse">
<stop stop-color="#FF6359"/>
<stop offset="0.2243" stop-color="#FE5B50"/>
<stop offset="0.5952" stop-color="#FC4637"/>
<stop offset="1" stop-color="#F82814"/>
</linearGradient>
<linearGradient id="paint59_linear" x1="103.57" y1="62.2125" x2="105.254" y2="64.8845" gradientUnits="userSpaceOnUse">
<stop stop-color="#FF6359"/>
<stop offset="0.2243" stop-color="#FE5B50"/>
<stop offset="0.5952" stop-color="#FC4637"/>
<stop offset="1" stop-color="#F82814"/>
</linearGradient>
</defs>
</svg>
