<svg width="36" height="36" viewBox="0 0 36 36" fill="none" xmlns="http://www.w3.org/2000/svg">
<path d="M14.6923 16.0991C13.5145 13.2475 10.6336 11.7316 8.25717 12.7129C5.88079 13.6943 4.90915 16.8014 6.08688 19.653C7.26431 22.5046 10.1453 24.0208 12.5217 23.0395C14.8981 22.0581 15.8697 18.9507 14.6923 16.0991Z" fill="#D6D6D4"/>
<path d="M13.6558 18.3097C13.6558 19.8524 12.4053 21.1028 10.8627 21.1028C9.32004 21.1028 8.06957 19.8524 8.06957 18.3097C8.06957 16.7671 9.32004 15.5166 10.8627 15.5166C12.4053 15.5166 13.6558 16.7671 13.6558 18.3097Z" fill="#F98500"/>
<path d="M8.43356 14.8847C6.25205 12.7032 3.0098 12.4083 1.19198 14.2265C-0.626144 16.0443 -0.331256 19.2865 1.85025 21.468C4.03175 23.6495 7.27401 23.9444 9.09183 22.1266C10.91 20.3085 10.6151 17.0662 8.43356 14.8847Z" fill="#E0E0DE"/>
<path d="M8.15473 18.3961C8.15473 19.9384 6.90396 21.1892 5.36163 21.1892C3.819 21.1892 2.56853 19.9384 2.56853 18.3961C2.56853 16.8535 3.819 15.603 5.36163 15.603C6.90396 15.603 8.15473 16.8535 8.15473 18.3961V18.3961Z" fill="#F98500"/>
<path d="M9.93103 33.5172H26.069V36H9.93103V33.5172Z" fill="#E04343"/>
<path d="M31.0345 18.3103C31.0345 21.2241 28.6723 23.5862 25.7586 23.5862C22.8449 23.5862 20.4828 21.2241 20.4828 18.3103C20.4828 15.3966 22.8449 13.0345 25.7586 13.0345C28.6723 13.0345 31.0345 15.3966 31.0345 18.3103Z" fill="#B0564C"/>
<path d="M25.7586 21.7241C23.8732 21.7241 22.3448 20.1957 22.3448 18.3103C22.3448 16.4249 23.8732 14.8965 25.7586 14.8965C27.644 14.8965 29.1724 16.4249 29.1724 18.3103C29.1703 20.1948 27.6431 21.722 25.7586 21.7241ZM25.7586 16.1379C24.5588 16.1379 23.5862 17.1105 23.5862 18.3103C23.5862 19.5102 24.5588 20.4828 25.7586 20.4828C26.9585 20.4828 27.931 19.5102 27.931 18.3103C27.931 17.1105 26.9585 16.1379 25.7586 16.1379Z" fill="#B9685F"/>
<path d="M31.2848 12.3038L36 16.3401L28.7345 24.8276L24.0193 20.791L31.2848 12.3038Z" fill="#3D4D63"/>
<path d="M26.069 33.5172H9.93103C4.09479 32.058 0.000303071 26.8142 0 20.798V18.6207H36V20.798C35.9997 26.8142 31.9052 32.058 26.069 33.5172Z" fill="#E94F4F"/>
<path d="M27.931 18.6207V20.798C27.9307 26.8142 23.8362 32.058 18 33.5172H26.069C31.9052 32.058 35.9997 26.8142 36 20.798V18.6207H27.931Z" fill="#E04343"/>
<path d="M2.49336 24.5242C2.33365 24.0681 2.20363 23.6026 2.10422 23.1301L3.31893 22.8743C3.40773 23.295 3.5235 23.7096 3.66504 24.1157L2.49336 24.5242Z" fill="#F26666"/>
<path d="M7.74801 30.6887C5.70501 29.5867 4.0563 27.8759 3.03071 25.7935L4.14298 25.2428C5.05583 27.0955 6.52361 28.6175 8.34203 29.597L7.74801 30.6887Z" fill="#F26666"/>
<path d="M36 2.48276H9.93103V0.62069L36 0V2.48276Z" fill="#E94F4F"/>
<path d="M22.5994 4.64911L36 4.96552V2.48276H9.93103V4.34483L12.7426 4.41302L15.2069 4.46909" fill="#CF3A3A"/>
<path d="M13.0308 18.6207C13.0308 18.5407 13.0345 18.4573 13.0345 18.3725C13.0345 16.3861 12.4138 16.3861 12.4138 14.4001C12.4138 12.4138 13.0345 12.4138 13.0345 10.4275C13.0345 8.44144 12.4138 8.44144 12.4138 6.45875C12.4008 5.74016 12.519 5.02492 12.7626 4.34846L17.0968 4.28633L17.3793 18.6022L13.0308 18.6207Z" fill="#FFB531"/>
<path d="M22.9619 18.6207C22.9619 18.5407 22.9655 18.4573 22.9655 18.3725C22.9655 16.3861 22.3448 16.3861 22.3448 14.4001C22.3448 12.4138 22.9655 12.4138 22.9655 10.4275C22.9655 8.44144 22.3448 8.44144 22.3448 6.45874C22.3448 4.47636 22.9655 4.47272 22.9655 2.48639H15.5172C15.5172 4.47272 14.8966 4.47272 14.8966 6.45874C14.8966 8.44507 15.5172 8.44507 15.5172 10.4275C15.5172 12.4102 14.8966 12.4138 14.8966 14.4001C14.8966 16.3861 15.5172 16.3861 15.5172 18.3725C15.5172 18.4601 15.5172 18.5431 15.5136 18.6207H22.9619Z" fill="#FFB531"/>
<path d="M16.0722 18.5058L14.8308 18.4667C14.8308 18.3928 14.8344 18.3152 14.8344 18.2346C14.8505 17.6218 14.7559 17.0108 14.5547 16.4316C14.318 15.7321 14.2046 14.9972 14.2195 14.2592C14.2059 13.5206 14.3213 12.7854 14.5608 12.0868C14.7629 11.5085 14.8596 10.899 14.8456 10.2868C14.8614 9.67463 14.7665 9.06485 14.5656 8.48659C14.3286 7.78741 14.2153 7.05246 14.2304 6.31418C14.2174 5.5759 14.3328 4.84065 14.572 4.14177C14.7744 3.56381 14.8708 2.95403 14.8569 2.34183H16.0982C16.1113 3.08041 15.9955 3.81536 15.7561 4.51424C15.5539 5.0922 15.4575 5.70198 15.4718 6.31418C15.456 6.92608 15.5506 7.53586 15.7512 8.11442C15.9885 8.81331 16.1022 9.54856 16.087 10.2868C16.0997 11.0251 15.9843 11.7601 15.7458 12.4593C15.543 13.0369 15.4463 13.6467 15.4609 14.2592C15.4454 14.8711 15.54 15.4806 15.74 16.0591C15.9773 16.7583 16.091 17.4933 16.0758 18.2315C16.0758 18.3303 16.0758 18.4194 16.0722 18.5058Z" fill="#F7A116"/>
<path d="M18.5549 18.5105L17.3135 18.4708C17.3135 18.3971 17.3172 18.3195 17.3172 18.2386C17.3332 17.6258 17.2384 17.0148 17.0374 16.4356C16.8008 15.7365 16.6874 15.0012 16.7023 14.2632C16.6886 13.5246 16.8041 12.7897 17.0435 12.0908C17.2457 11.5129 17.3423 10.9031 17.3284 10.2909C17.3445 9.67898 17.2496 9.0689 17.0484 8.49094C16.8114 7.79176 16.698 7.05651 16.7132 6.31853C16.7001 5.57994 16.8156 4.84469 17.0547 4.14611C17.2572 3.56785 17.3536 2.95838 17.3396 2.34587H18.581C18.5937 3.08446 18.4779 3.81971 18.2388 4.51828C18.0367 5.09654 17.9403 5.70632 17.9545 6.31853C17.9388 6.93043 18.0333 7.54021 18.234 8.11847C18.4713 8.81735 18.5849 9.5526 18.5698 10.2909C18.5825 11.0292 18.467 11.7641 18.2285 12.4633C18.0255 13.0409 17.9291 13.651 17.9436 14.2632C17.9276 14.876 18.0221 15.487 18.2228 16.0662C18.4601 16.7654 18.5734 17.5006 18.5586 18.2386C18.5586 18.3344 18.5586 18.4244 18.5549 18.5105Z" fill="#F7A116"/>
<path d="M23.5205 18.5164L22.2791 18.4767C22.2791 18.4028 22.2827 18.3252 22.2827 18.2446C22.2985 17.6327 22.2036 17.0229 22.003 16.4446C21.766 15.7455 21.6523 15.0102 21.6678 14.2722C21.6541 13.5336 21.7696 12.7984 22.009 12.0998C22.2115 11.5219 22.3079 10.9121 22.2939 10.2999C22.31 9.68767 22.2151 9.07789 22.0139 8.49963C21.7769 7.80044 21.6635 7.0655 21.6787 6.32721C21.6657 5.58893 21.7811 4.85368 22.0203 4.1548C22.2227 3.57684 22.3191 2.96706 22.3051 2.35486H23.5465C23.5592 3.09344 23.4438 3.82839 23.2044 4.52727C23.0022 5.10523 22.9058 5.71501 22.9201 6.32721C22.9043 6.93912 22.9989 7.54889 23.1995 8.12746C23.4368 8.82634 23.5505 9.56159 23.5353 10.2999C23.548 11.0382 23.4326 11.7731 23.194 12.4723C22.991 13.0499 22.8946 13.6597 22.9092 14.2722C22.8934 14.8841 22.988 15.4939 23.1883 16.0722C23.4256 16.7714 23.5389 17.5063 23.5241 18.2446C23.5241 18.3407 23.5241 18.4301 23.5205 18.5164Z" fill="#F7A116"/>
<path d="M21.0377 18.5136L19.7963 18.4745C19.7963 18.4006 19.7999 18.323 19.7999 18.2424C19.816 17.6293 19.7211 17.0186 19.5202 16.4391C19.2835 15.7399 19.1702 15.005 19.185 14.2667C19.1714 13.5284 19.2868 12.7932 19.5263 12.0943C19.7284 11.5163 19.8251 10.9065 19.8112 10.2943C19.8269 9.68244 19.7321 9.07266 19.5311 8.4944C19.2941 7.79522 19.1808 7.05996 19.1959 6.32199C19.1832 5.58461 19.2987 4.85057 19.5375 4.1526C19.7399 3.57464 19.8363 2.96487 19.8224 2.35266H21.0637C21.0768 3.09125 20.961 3.82619 20.7216 4.52508C20.5194 5.10303 20.4231 5.71281 20.4373 6.32502C20.4215 6.93692 20.5161 7.5467 20.7167 8.12496C20.954 8.82414 21.0677 9.55939 21.0525 10.2974C21.0653 11.036 20.9498 11.7709 20.7113 12.4698C20.5085 13.0477 20.4118 13.6575 20.4264 14.2697C20.4109 14.8816 20.5055 15.4914 20.7055 16.07C20.9428 16.7692 21.0562 17.5041 21.0413 18.2424C21.0413 18.3379 21.0413 18.4279 21.0377 18.5136Z" fill="#F7A116"/>
<path d="M36 20.4828H0V20.798C0 21.1083 0.017275 21.4186 0.0390962 21.7241H35.9609C35.9827 21.4168 36 21.1089 36 20.798V20.4828Z" fill="#FFB531"/>
</svg>
