<svg width="134" height="128" viewBox="0 0 134 128" fill="none" xmlns="http://www.w3.org/2000/svg">
<g clip-path="url(#clip0)">
<path d="M11.5156 14.0068H58.3858V21.5293H11.5156V14.0068Z" fill="#F28830"/>
<path d="M93.8057 3.76074V0H57.4759V3.76074C57.4759 7.58594 56.7296 9.29883 55.786 11.4678C54.7105 13.9375 53.4919 16.7363 53.4919 22.0625C53.4919 27.3887 54.7105 30.1885 55.786 32.6582C56.7296 34.8271 57.4759 36.54 57.4759 40.3652C57.4759 44.1895 56.7296 45.9033 55.786 48.0723C54.7105 50.541 53.4919 53.3408 53.4919 58.667V62.4277H89.8217V58.667C89.8217 54.8428 90.568 53.1289 91.5116 50.96C92.5871 48.4902 93.8057 45.6914 93.8057 40.3652C93.8057 35.0381 92.5871 32.2393 91.5116 29.7695C90.568 27.6006 89.8217 25.8877 89.8217 22.0625C89.8217 18.2383 90.568 16.5254 91.5116 14.3564C92.5871 11.8867 93.8057 9.08789 93.8057 3.76074Z" fill="#FFDFB0"/>
<path d="M93.8057 3.76074V0H57.4759V3.76074C57.4759 7.58594 56.7296 9.29883 55.786 11.4678C54.7105 13.9375 53.4919 16.7363 53.4919 22.0625C53.4919 27.3887 54.7105 30.1885 55.786 32.6582C56.7296 34.8271 57.4759 36.54 57.4759 40.3652C57.4759 44.1895 56.7296 45.9033 55.786 48.0723C54.7105 50.541 53.4919 53.3408 53.4919 58.667V62.4277H89.8217V58.667C89.8217 54.8428 90.568 53.1289 91.5116 50.96C92.5871 48.4902 93.8057 45.6914 93.8057 40.3652C93.8057 35.0381 92.5871 32.2393 91.5116 29.7695C90.568 27.6006 89.8217 25.8877 89.8217 22.0625C89.8217 18.2383 90.568 16.5254 91.5116 14.3564C92.5871 11.8867 93.8057 9.08789 93.8057 3.76074Z" fill="#FFDFB0"/>
<path d="M93.8057 3.76074V0H73.2639V62.4277H89.8217V58.667C89.8217 54.8428 90.568 53.1289 91.5116 50.96C92.5871 48.4902 93.8057 45.6914 93.8057 40.3652C93.8057 35.0381 92.5871 32.2393 91.5116 29.7695C90.568 27.6006 89.8217 25.8877 89.8217 22.0625C89.8217 18.2383 90.568 16.5254 91.5116 14.3564C92.5871 11.8867 93.8057 9.08789 93.8057 3.76074Z" fill="#FFC170"/>
<path d="M75.7165 58.6669H67.8414C67.8414 53.3495 69.0559 50.5234 70.1284 48.0302C71.075 45.8251 71.8234 44.0829 71.8234 40.2499C71.8234 36.4247 71.0781 34.7119 70.1335 32.5429C69.059 30.0732 67.8404 27.2734 67.8404 21.9472C67.8404 16.6122 69.0621 13.8398 70.1406 11.3945C71.0812 9.26166 71.8244 7.57709 71.8244 3.76166H79.6995C79.6995 9.09662 78.4768 11.8691 77.3982 14.3144C76.4577 16.4472 75.7154 18.1318 75.7154 21.9472C75.7154 25.7724 76.4607 27.4853 77.4054 29.6542C78.4798 32.124 79.6985 34.9228 79.6985 40.2499C79.6985 45.5673 78.4839 48.3935 77.4125 50.8867C76.4658 53.0917 75.7165 54.8329 75.7165 58.6669Z" fill="#EF9F41"/>
<path d="M119.402 54.9053L116.827 82.1387L116.118 89.6611L112.493 128H34.0347L30.4095 89.6611L29.701 82.1387L27.1257 54.9053H119.402Z" fill="#F92814"/>
<path d="M73.7699 54.9053V128H112.493L116.118 89.6611L116.827 82.1387L119.402 54.9053H73.7699Z" fill="#C10000"/>
<path d="M23.8287 54.9062H122.698V62.4277H23.8287V54.9062Z" fill="#96E8FF"/>
<path d="M116.827 82.1387L116.118 89.6611H89.5528V82.1387H116.827Z" fill="#4C0000"/>
<path d="M57.7458 82.1387V89.6611H30.4095L29.701 82.1387H57.7458Z" fill="#750000"/>
<path d="M53.8077 74.2051H93.4888V97.5928H53.8077V74.2051Z" fill="#F28830"/>
<path d="M11.5156 0H93.8272V7.52246H11.5156V0Z" fill="#F28830"/>
<path d="M73.7699 54.9062H122.698V62.4277H73.7699V54.9062Z" fill="#80DBFF"/>
<path d="M73.7698 74.2051H93.4897V97.5928H73.7698V74.2051Z" fill="#DD7936"/>
<path d="M73.2638 0H93.8271V7.52246H73.2638V0Z" fill="#DD7936"/>
</g>
<defs>
<clipPath id="clip0">
<rect width="134" height="128" fill="white"/>
</clipPath>
</defs>
</svg>
