<svg width="132" height="134" viewBox="0 0 132 134" fill="none" xmlns="http://www.w3.org/2000/svg">
<g clip-path="url(#clip0)">
<path d="M106.247 10.4902V13.7844C106.247 15.6992 104.7 17.242 102.814 17.208L24.3679 15.8012C22.9979 15.7766 21.8999 14.6424 21.8999 13.2513V11.0236C21.8999 9.63254 22.9979 8.49825 24.3679 8.47365L102.815 7.06664C104.7 7.03288 106.247 8.57545 106.247 10.4902Z" fill="#F3CE72"/>
<path d="M54.3177 6.06036H20.9029C18.3341 6.06036 16.2517 8.17427 16.2517 10.782V55.6883H58.9689V10.782C58.9689 8.17427 56.8866 6.06036 54.3177 6.06036Z" fill="#F3CE72"/>
<path opacity="0.5" d="M54.3177 6.06036H20.9029C18.3341 6.06036 16.2517 8.17427 16.2517 10.782V55.6883H58.9689V10.782C58.9689 8.17427 56.8866 6.06036 54.3177 6.06036Z" fill="white"/>
<path opacity="0.15" d="M23.0788 27.8359C21.7088 27.8605 20.6108 28.9948 20.6108 30.3858V32.6136C20.6108 34.0046 21.7088 35.1389 23.0788 35.1635L58.9689 35.8073V27.1923L23.0788 27.8359Z" fill="black"/>
<g opacity="0.1">
<path opacity="0.1" d="M39.5433 6.05933H35.6761V55.6864H39.5433V6.05933Z" fill="black"/>
<path opacity="0.1" d="M29.2127 6.05933H25.3455V55.6864H29.2127V6.05933Z" fill="black"/>
<path opacity="0.1" d="M49.8764 6.05933H46.0092V55.6864H49.8764V6.05933Z" fill="black"/>
</g>
<path d="M106.247 26.6972V29.9914C106.247 31.9062 104.7 33.449 102.814 33.415L24.3677 32.008C22.9977 31.9834 21.8996 30.8488 21.8996 29.458V27.2303C21.8996 25.8393 22.9977 24.705 24.3677 24.6804L102.814 23.2734C104.701 23.2396 106.247 24.7822 106.247 26.6972Z" fill="#F3CE72"/>
<path d="M86.8591 110.497H45.1409L42.4432 123.226C41.9291 125.652 43.7503 127.941 46.1943 127.941H85.8057C88.2497 127.941 90.0709 125.652 89.5568 123.226L86.8591 110.497Z" fill="#C06376"/>
<path opacity="0.1" d="M86.8591 110.497H45.1409L43.2986 119.191C50.3799 121.395 58.0246 122.561 66 122.561C73.9754 122.561 81.6201 121.395 88.7014 119.191L86.8591 110.497Z" fill="black"/>
<path d="M5.19671 55.6882C2.16638 55.6882 -0.24004 58.3151 0.019062 61.3801C2.88594 95.2936 31.3317 117.275 66 117.275C100.668 117.275 129.114 95.2936 131.981 61.3801C132.24 58.3151 129.834 55.6882 126.803 55.6882H5.19671Z" fill="#C06376"/>
<path d="M110.868 98.2612C105.912 93.2302 97.8765 93.2302 92.9205 98.2612C87.9646 103.292 79.9293 103.292 74.9734 98.2612C70.0175 93.2302 61.9822 93.2302 57.0263 98.2612C52.0704 103.292 44.0351 103.292 39.0792 98.2612C34.1233 93.2302 26.088 93.2302 21.1321 98.2612C20.4265 98.9776 19.6579 99.5905 18.8451 100.103C30.8534 111.045 47.5445 117.275 65.9997 117.275C84.4547 117.275 101.146 111.045 113.154 100.103C112.342 99.5905 111.573 98.9776 110.868 98.2612Z" fill="#E978A0"/>
<path opacity="0.1" d="M27.8308 61.3798C27.5717 58.3149 29.9782 55.688 33.0085 55.688H5.19671C2.16638 55.688 -0.24004 58.3149 0.019062 61.3798C2.88594 95.2936 31.3317 117.275 66 117.275C70.7703 117.275 75.4217 116.856 79.9059 116.05C51.8007 110.998 30.3033 90.6272 27.8308 61.3798Z" fill="black"/>
<path opacity="0.1" d="M38.4422 50.3745C40.4438 48.7236 43.4566 49.7174 44.1202 52.2474C44.5534 53.8986 46.0672 55.0153 47.7479 54.923C50.3232 54.7816 52.1851 57.3834 51.2573 59.8263C50.6517 61.4204 51.2299 63.2273 52.643 64.1556C54.8081 65.578 54.8081 68.794 52.643 70.2162C51.2299 71.1445 50.6517 72.9514 51.2573 74.5456C52.1854 76.9882 50.3232 79.5899 47.7479 79.4489C46.0672 79.3568 44.5531 80.4735 44.1202 82.1244C43.4566 84.6545 40.4438 85.6482 38.4422 83.9973C37.1358 82.9198 35.2644 82.9198 33.958 83.9973C31.9564 85.6482 28.9436 84.6545 28.28 82.1244C27.8469 80.4732 26.333 79.3565 24.6523 79.4489C22.077 79.5902 20.2148 76.9885 21.143 74.5456C21.7486 72.9514 21.1703 71.1445 19.7572 70.2162C17.5921 68.7938 17.5921 65.5778 19.7572 64.1556C21.1703 63.2273 21.7486 61.4204 21.143 59.8263C20.2148 57.3836 22.077 54.7819 24.6523 54.923C26.333 55.0151 27.8471 53.8983 28.28 52.2474C28.9436 49.7174 31.9564 48.7236 33.958 50.3745C35.2644 51.452 37.1358 51.452 38.4422 50.3745Z" fill="black"/>
<path opacity="0.1" d="M81.4571 80.4291C75.984 85.9851 75.984 94.993 81.4571 100.549C86.9302 106.105 95.8036 106.105 101.277 100.549C106.75 94.993 113.152 79.4861 107.679 73.9301C102.206 68.3741 86.9302 74.8731 81.4571 80.4291Z" fill="black"/>
<path d="M83.6498 76.866C78.1767 82.4221 78.1767 91.4299 83.6498 96.9859C89.1229 102.542 97.9963 102.542 103.469 96.9859C108.943 91.4299 115.345 75.9231 109.871 70.367C104.398 64.811 89.1229 71.31 83.6498 76.866Z" fill="white"/>
<path opacity="0.1" d="M105.234 93.5134C99.7605 99.0694 90.8869 99.0694 85.414 93.5134C81.4803 89.5201 80.3738 83.7434 82.095 78.7469C78.2427 84.2985 78.7584 92.02 83.6501 96.9859C89.1232 102.542 97.9966 102.542 103.47 96.9859C105.399 95.0269 107.444 91.8303 109.044 88.2693C107.831 90.3887 106.507 92.2207 105.234 93.5134Z" fill="black"/>
<path d="M93.5601 94.2612C97.5512 94.2612 100.787 90.9768 100.787 86.9252C100.787 82.8737 97.5512 79.5892 93.5601 79.5892C89.5691 79.5892 86.3337 82.8737 86.3337 86.9252C86.3337 90.9768 89.5691 94.2612 93.5601 94.2612Z" fill="#F3CE72"/>
<path d="M39.8524 46.4221C41.8541 44.7712 44.8669 45.7649 45.5305 48.2949C45.9636 49.9461 47.4775 51.0629 49.1581 50.9705C51.7334 50.8292 53.5954 53.4312 52.6675 55.8738C52.0619 57.4679 52.6402 59.2748 54.0532 60.2031C56.2183 61.6256 56.2183 64.8416 54.0532 66.2638C52.6402 67.1921 52.0619 68.999 52.6675 70.5931C53.5956 73.0357 51.7334 75.6375 49.1581 75.4964C47.4775 75.4043 45.9633 76.521 45.5305 78.172C44.8669 80.702 41.8541 81.6957 39.8524 80.0448C38.5461 78.9673 36.6746 78.9673 35.3683 80.0448C33.3666 81.6957 30.3538 80.702 29.6902 78.172C29.2571 76.5208 27.7432 75.4043 26.0625 75.4964C23.4872 75.6375 21.6251 73.036 22.5532 70.5931C23.1588 68.999 22.5805 67.1921 21.1674 66.2638C19.0023 64.8413 19.0023 61.6253 21.1674 60.2031C22.5805 59.2748 23.1588 57.4679 22.5532 55.8738C21.6251 53.4312 23.4872 50.8294 26.0625 50.9705C27.7432 51.0626 29.2573 49.9459 29.6902 48.2949C30.3538 45.7649 33.3666 44.7712 35.3683 46.4221C36.6746 47.4996 38.5461 47.4996 39.8524 46.4221Z" fill="white"/>
<path d="M37.001 71.797C32.109 71.797 28.1294 67.7572 28.1294 62.791C28.1294 58.6017 31.4866 55.1936 35.6134 55.1936C39.1279 55.1936 41.9873 58.0963 41.9873 61.6643C41.9873 62.7486 41.1219 63.6272 40.0538 63.6272C38.9856 63.6272 38.1202 62.7486 38.1202 61.6643C38.1202 60.2613 36.9958 59.1194 35.6134 59.1194C33.6193 59.1194 31.9966 60.7666 31.9966 62.791C31.9966 65.5922 34.2416 67.8713 37.001 67.8713C40.7168 67.8713 43.74 64.8026 43.74 61.0302C43.74 59.9459 44.6054 59.0673 45.6736 59.0673C46.7417 59.0673 47.6071 59.9459 47.6071 61.0302C47.6069 66.967 42.849 71.797 37.001 71.797Z" fill="#E978A0"/>
</g>
<defs>
<clipPath id="clip0">
<rect width="132" height="134" fill="white"/>
</clipPath>
</defs>
</svg>
