<svg width="654" height="442" viewBox="0 0 654 442" fill="none" xmlns="http://www.w3.org/2000/svg">
<g clip-path="url(#clip0)">
<path d="M570.938 152.057C547.269 135.446 510.196 119.735 469.227 108.955C431.925 99.1394 395.541 94.4005 366.771 95.6106L366.621 92.4696C395.734 91.2456 432.495 96.0244 470.131 105.928C511.482 116.808 548.956 132.704 572.944 149.539L570.938 152.057Z" fill="#CCCCCC"/>
<path d="M568.481 164.853C568.502 179.571 565.215 194.127 558.835 207.571C558.303 208.697 557.748 209.812 557.171 210.917C546.075 232.253 527.605 249.43 504.775 259.646C481.944 269.862 456.1 272.514 431.458 267.17C406.815 261.826 384.829 248.801 369.085 230.219C353.34 211.638 344.767 188.596 344.763 164.853C344.763 162.422 344.852 160.011 345.028 157.618C345.112 156.401 345.22 155.192 345.353 153.99C348.319 127.225 362.117 102.55 383.899 85.0566C405.68 67.5637 433.784 58.588 462.41 59.9816C491.036 61.3752 517.999 73.0319 537.737 92.5461C557.474 112.06 568.479 137.943 568.481 164.853V164.853Z" fill="#D68F7E"/>
<path opacity="0.1" d="M558.835 207.571C558.303 208.697 557.748 209.812 557.171 210.917C553.902 211.25 550.461 211.492 546.849 211.643C543.858 211.769 540.78 211.832 537.636 211.832C510.167 211.832 477.108 207.071 443.336 198.186C405.699 188.282 371.65 174.43 347.456 159.178C346.632 158.659 345.823 158.139 345.028 157.618C345.112 156.402 345.22 155.192 345.353 153.99C346.635 154.848 347.958 155.708 349.321 156.568C373.23 171.638 406.939 185.343 444.24 195.159C477.718 203.968 510.465 208.687 537.619 208.687C540.723 208.687 543.75 208.626 546.698 208.502C550.992 208.32 555.037 208.009 558.835 207.571Z" fill="black"/>
<path d="M537.636 209.317C510.168 209.317 477.108 204.557 443.337 195.671C405.701 185.768 371.649 171.914 347.456 156.663C322.757 141.093 311.175 125.751 314.844 113.464C318.512 101.176 336.9 93.72 366.621 92.4696L366.771 95.6107C352.892 96.1945 341.581 98.1311 333.152 101.367C324.744 104.594 319.669 108.95 318.068 114.312C316.467 119.674 318.392 125.872 323.788 132.732C329.197 139.608 337.788 146.782 349.323 154.053C373.229 169.123 406.938 182.828 444.241 192.643C477.719 201.452 510.464 206.173 537.62 206.173C540.723 206.173 543.749 206.111 546.697 205.988C560.577 205.404 571.888 203.467 580.316 200.232C588.724 197.004 593.799 192.649 595.4 187.286C598.275 177.658 589.587 165.146 570.938 152.057L572.943 149.539C582.54 156.275 589.644 162.914 594.058 169.272C598.79 176.089 600.327 182.435 598.625 188.135C594.956 200.423 576.568 207.878 546.848 209.129C543.857 209.255 540.781 209.317 537.636 209.317Z" fill="#CCCCCC"/>
<path d="M459.581 40.9016C460.289 40.9016 460.863 40.3629 460.863 39.6983C460.863 39.0337 460.289 38.4949 459.581 38.4949C458.873 38.4949 458.299 39.0337 458.299 39.6983C458.299 40.3629 458.873 40.9016 459.581 40.9016Z" fill="#F2F2F2"/>
<path d="M289.53 93.1183C290.748 93.1183 291.735 92.1915 291.735 91.0482C291.735 89.9048 290.748 88.978 289.53 88.978C288.312 88.978 287.325 89.9048 287.325 91.0482C287.325 92.1915 288.312 93.1183 289.53 93.1183Z" fill="#CCCCCC"/>
<path d="M284.83 176.162C287.236 176.162 289.186 174.331 289.186 172.073C289.186 169.814 287.236 167.983 284.83 167.983C282.424 167.983 280.474 169.814 280.474 172.073C280.474 174.331 282.424 176.162 284.83 176.162Z" fill="#CCCCCC"/>
<path d="M546.316 49.6439C547.919 49.6439 549.219 48.4236 549.219 46.9183C549.219 45.413 547.919 44.1927 546.316 44.1927C544.712 44.1927 543.412 45.413 543.412 46.9183C543.412 48.4236 544.712 49.6439 546.316 49.6439Z" fill="#CCCCCC"/>
<path d="M649.286 164.465C651.89 164.465 654 162.483 654 160.039C654 157.595 651.89 155.614 649.286 155.614C646.683 155.614 644.573 157.595 644.573 160.039C644.573 162.483 646.683 164.465 649.286 164.465Z" fill="#CCCCCC"/>
<path d="M612.427 91.259C613.543 91.259 614.449 90.4089 614.449 89.3603C614.449 88.3118 613.543 87.4617 612.427 87.4617C611.31 87.4617 610.404 88.3118 610.404 89.3603C610.404 90.4089 611.31 91.259 612.427 91.259Z" fill="#CCCCCC"/>
<path d="M366.865 67.9303C368.608 67.9303 370.02 66.6042 370.02 64.9683C370.02 63.3325 368.608 62.0064 366.865 62.0064C365.123 62.0064 363.71 63.3325 363.71 64.9683C363.71 66.6042 365.123 67.9303 366.865 67.9303Z" fill="#CCCCCC"/>
<path d="M605.348 152.965C606.465 152.965 607.37 152.115 607.37 151.066C607.37 150.018 606.465 149.168 605.348 149.168C604.231 149.168 603.325 150.018 603.325 151.066C603.325 152.115 604.231 152.965 605.348 152.965Z" fill="#CCCCCC"/>
<path d="M295.085 232.196C296.475 232.196 297.602 231.138 297.602 229.833C297.602 228.528 296.475 227.47 295.085 227.47C293.694 227.47 292.567 228.528 292.567 229.833C292.567 231.138 293.694 232.196 295.085 232.196Z" fill="#CCCCCC"/>
<path d="M345.929 265.283C347.435 265.283 348.655 264.137 348.655 262.724C348.655 261.311 347.435 260.165 345.929 260.165C344.424 260.165 343.203 261.311 343.203 262.724C343.203 264.137 344.424 265.283 345.929 265.283Z" fill="#CCCCCC"/>
<path d="M425.174 5.05018H419.794V0H416.908V5.05018H411.526V7.76184H416.908V12.812H419.794V7.76184H425.174V5.05018Z" fill="#CCCCCC"/>
<path d="M549.959 278.311H546.58V275.141H544.768V278.311H541.391V280.013H544.768V283.184H546.58V280.013H549.959V278.311Z" fill="#CCCCCC"/>
<path d="M627.922 262.08H625.397V259.71H624.041V262.08H621.516V263.353H624.041V265.724H625.397V263.353H627.922V262.08Z" fill="#CCCCCC"/>
<path opacity="0.1" d="M458.299 91.4493C463.491 91.4493 467.699 87.4984 467.699 82.6248C467.699 77.7512 463.491 73.8004 458.299 73.8004C453.108 73.8004 448.9 77.7512 448.9 82.6248C448.9 87.4984 453.108 91.4493 458.299 91.4493Z" fill="black"/>
<path opacity="0.1" d="M386.092 156.028C391.283 156.028 395.492 152.077 395.492 147.204C395.492 142.33 391.283 138.379 386.092 138.379C380.901 138.379 376.692 142.33 376.692 147.204C376.692 152.077 380.901 156.028 386.092 156.028Z" fill="black"/>
<path opacity="0.1" d="M489.917 244.674C495.108 244.674 499.317 240.723 499.317 235.85C499.317 230.976 495.108 227.025 489.917 227.025C484.726 227.025 480.517 230.976 480.517 235.85C480.517 240.723 484.726 244.674 489.917 244.674Z" fill="black"/>
<path opacity="0.1" d="M458.299 169.666C463.491 169.666 467.699 165.715 467.699 160.842C467.699 155.968 463.491 152.017 458.299 152.017C453.108 152.017 448.9 155.968 448.9 160.842C448.9 165.715 453.108 169.666 458.299 169.666Z" fill="black"/>
<path opacity="0.1" d="M390.792 218.201C395.983 218.201 400.192 214.25 400.192 209.376C400.192 204.503 395.983 200.552 390.792 200.552C385.601 200.552 381.392 204.503 381.392 209.376C381.392 214.25 385.601 218.201 390.792 218.201Z" fill="black"/>
<path opacity="0.1" d="M508.716 122.335C513.908 122.335 518.116 118.384 518.116 113.51C518.116 108.637 513.908 104.686 508.716 104.686C503.525 104.686 499.317 108.637 499.317 113.51C499.317 118.384 503.525 122.335 508.716 122.335Z" fill="black"/>
<path opacity="0.1" d="M539.907 182.101C545.098 182.101 549.306 178.15 549.306 173.276C549.306 168.403 545.098 164.452 539.907 164.452C534.715 164.452 530.507 168.403 530.507 173.276C530.507 178.15 534.715 182.101 539.907 182.101Z" fill="black"/>
<path d="M458.299 133.967C465.142 133.967 470.69 128.759 470.69 122.335C470.69 115.911 465.142 110.703 458.299 110.703C451.456 110.703 445.909 115.911 445.909 122.335C445.909 128.759 451.456 133.967 458.299 133.967Z" fill="white"/>
<path d="M458.299 105.488C453.653 105.488 449.198 107.221 445.913 110.305C442.627 113.389 440.782 117.572 440.782 121.934C440.782 131.016 458.299 160.842 458.299 160.842C458.299 160.842 475.817 131.016 475.817 121.934C475.817 117.572 473.972 113.389 470.686 110.305C467.401 107.221 462.946 105.488 458.299 105.488ZM458.299 129.956C456.694 129.956 455.124 129.509 453.789 128.672C452.454 127.834 451.414 126.644 450.799 125.251C450.185 123.859 450.024 122.326 450.337 120.848C450.651 119.37 451.424 118.012 452.559 116.946C453.695 115.88 455.141 115.154 456.716 114.86C458.291 114.566 459.923 114.717 461.406 115.294C462.89 115.871 464.157 116.847 465.049 118.101C465.941 119.354 466.418 120.828 466.418 122.335C466.418 123.336 466.208 124.327 465.8 125.251C465.392 126.176 464.794 127.016 464.04 127.724C463.286 128.432 462.391 128.993 461.406 129.376C460.421 129.759 459.366 129.956 458.299 129.956Z" fill="#CCCCCC"/>
<path d="M390.792 183.705C397.635 183.705 403.182 178.497 403.182 172.073C403.182 165.648 397.635 160.441 390.792 160.441C383.949 160.441 378.401 165.648 378.401 172.073C378.401 178.497 383.949 183.705 390.792 183.705Z" fill="white"/>
<path d="M390.792 155.226C386.146 155.226 381.69 156.959 378.405 160.043C375.12 163.127 373.274 167.31 373.274 171.672C373.274 180.754 390.792 210.579 390.792 210.579C390.792 210.579 408.309 180.754 408.309 171.672C408.309 169.512 407.856 167.373 406.976 165.378C406.096 163.383 404.805 161.57 403.179 160.043C401.552 158.516 399.621 157.304 397.495 156.478C395.37 155.651 393.092 155.226 390.792 155.226ZM390.792 179.694C389.186 179.694 387.617 179.247 386.282 178.409C384.947 177.572 383.906 176.382 383.292 174.989C382.677 173.597 382.516 172.064 382.83 170.586C383.143 169.108 383.916 167.75 385.051 166.684C386.187 165.618 387.633 164.892 389.208 164.598C390.783 164.304 392.415 164.455 393.898 165.032C395.382 165.609 396.65 166.585 397.542 167.839C398.434 169.092 398.91 170.565 398.91 172.073C398.91 173.074 398.7 174.065 398.292 174.989C397.884 175.914 397.286 176.754 396.532 177.462C395.778 178.169 394.883 178.731 393.898 179.114C392.913 179.497 391.858 179.694 390.792 179.694Z" fill="#CCCCCC"/>
<path d="M539.907 147.605C546.75 147.605 552.297 142.397 552.297 135.973C552.297 129.548 546.75 124.34 539.907 124.34C533.064 124.34 527.516 129.548 527.516 135.973C527.516 142.397 533.064 147.605 539.907 147.605Z" fill="white"/>
<path d="M539.907 119.126C537.606 119.126 535.328 119.551 533.203 120.378C531.078 121.204 529.146 122.416 527.52 123.943C525.893 125.47 524.603 127.283 523.722 129.278C522.842 131.273 522.389 133.412 522.389 135.572C522.389 144.654 539.907 174.479 539.907 174.479C539.907 174.479 557.424 144.654 557.424 135.572C557.425 133.412 556.971 131.273 556.091 129.278C555.211 127.283 553.92 125.47 552.294 123.943C550.667 122.416 548.736 121.204 546.61 120.378C544.485 119.551 542.207 119.126 539.907 119.126ZM539.907 143.594C538.301 143.594 536.732 143.147 535.397 142.309C534.062 141.472 533.021 140.282 532.407 138.889C531.792 137.497 531.631 135.964 531.945 134.486C532.258 133.007 533.031 131.65 534.166 130.584C535.302 129.518 536.748 128.792 538.323 128.498C539.898 128.204 541.53 128.355 543.013 128.932C544.497 129.508 545.765 130.485 546.657 131.739C547.549 132.992 548.025 134.465 548.025 135.973C548.025 136.973 547.815 137.965 547.407 138.889C546.999 139.814 546.401 140.654 545.647 141.362C544.893 142.069 543.998 142.631 543.013 143.014C542.028 143.397 540.973 143.594 539.907 143.594Z" fill="#CCCCCC"/>
<path d="M458.299 55.7503C465.142 55.7503 470.69 50.5423 470.69 44.118C470.69 37.6937 465.142 32.4858 458.299 32.4858C451.456 32.4858 445.909 37.6937 445.909 44.118C445.909 50.5423 451.456 55.7503 458.299 55.7503Z" fill="white"/>
<path d="M458.299 27.2714C453.653 27.2714 449.198 29.004 445.913 32.0882C442.627 35.1723 440.782 39.3553 440.782 43.7169C440.782 52.7996 458.299 82.6248 458.299 82.6248C458.299 82.6248 475.817 52.7996 475.817 43.7169C475.817 39.3553 473.972 35.1723 470.686 32.0881C467.401 29.004 462.946 27.2714 458.299 27.2714ZM458.299 51.7392C456.694 51.7392 455.124 51.2922 453.789 50.4548C452.454 49.6174 451.414 48.4271 450.799 47.0345C450.185 45.6419 450.024 44.1096 450.337 42.6312C450.651 41.1529 451.424 39.7949 452.559 38.7291C453.695 37.6632 455.141 36.9374 456.716 36.6433C458.291 36.3493 459.923 36.5002 461.406 37.077C462.89 37.6539 464.157 38.6307 465.049 39.884C465.941 41.1373 466.418 42.6107 466.418 44.118C466.418 45.1189 466.208 46.1099 465.8 47.0345C465.392 47.9592 464.794 48.7993 464.04 49.507C463.286 50.2147 462.391 50.7761 461.406 51.1591C460.421 51.5421 459.366 51.7392 458.299 51.7392Z" fill="#CCCCCC"/>
<path d="M489.917 210.178C496.76 210.178 502.307 204.97 502.307 198.546C502.307 192.122 496.76 186.914 489.917 186.914C483.074 186.914 477.526 192.122 477.526 198.546C477.526 204.97 483.074 210.178 489.917 210.178Z" fill="white"/>
<path d="M489.917 181.699C485.271 181.699 480.815 183.432 477.53 186.516C474.245 189.6 472.399 193.783 472.399 198.145C472.399 207.228 489.917 237.053 489.917 237.053C489.917 237.053 507.435 207.228 507.435 198.145C507.435 195.985 506.982 193.847 506.101 191.852C505.221 189.856 503.931 188.043 502.304 186.516C500.677 184.989 498.746 183.778 496.621 182.951C494.495 182.125 492.217 181.699 489.917 181.699ZM489.917 206.167C488.311 206.167 486.742 205.72 485.407 204.883C484.072 204.045 483.031 202.855 482.417 201.463C481.802 200.07 481.642 198.538 481.955 197.059C482.268 195.581 483.041 194.223 484.177 193.157C485.312 192.091 486.758 191.366 488.333 191.071C489.908 190.777 491.54 190.928 493.024 191.505C494.507 192.082 495.775 193.059 496.667 194.312C497.559 195.565 498.035 197.039 498.035 198.546C498.035 199.547 497.825 200.538 497.417 201.463C497.009 202.387 496.411 203.227 495.657 203.935C494.903 204.643 494.009 205.204 493.024 205.587C492.039 205.97 490.983 206.167 489.917 206.167Z" fill="#3F3D56"/>
<path d="M386.092 120.73C392.935 120.73 398.482 115.523 398.482 109.098C398.482 102.674 392.935 97.4659 386.092 97.4659C379.249 97.4659 373.701 102.674 373.701 109.098C373.701 115.523 379.249 120.73 386.092 120.73Z" fill="white"/>
<path d="M386.092 92.2515C381.446 92.2515 376.99 93.9842 373.705 97.0683C370.42 100.152 368.574 104.335 368.574 108.697C368.574 117.78 386.092 147.605 386.092 147.605C386.092 147.605 403.61 117.78 403.61 108.697C403.61 104.335 401.764 100.152 398.479 97.0683C395.194 93.9842 390.738 92.2515 386.092 92.2515ZM386.092 116.719C384.486 116.719 382.917 116.272 381.582 115.435C380.247 114.597 379.206 113.407 378.592 112.015C377.977 110.622 377.817 109.09 378.13 107.611C378.443 106.133 379.216 104.775 380.352 103.709C381.487 102.643 382.934 101.918 384.508 101.623C386.083 101.329 387.715 101.48 389.199 102.057C390.682 102.634 391.95 103.611 392.842 104.864C393.734 106.117 394.21 107.591 394.21 109.098C394.21 110.099 394 111.09 393.592 112.015C393.184 112.939 392.586 113.779 391.832 114.487C391.079 115.195 390.184 115.756 389.199 116.139C388.214 116.522 387.158 116.719 386.092 116.719Z" fill="#3F3D56"/>
<path d="M508.716 88.2404C515.56 88.2404 521.107 83.0324 521.107 76.6081C521.107 70.1838 515.56 64.9759 508.716 64.9759C501.873 64.9759 496.326 70.1838 496.326 76.6081C496.326 83.0324 501.873 88.2404 508.716 88.2404Z" fill="white"/>
<path d="M508.717 59.7615C504.071 59.7615 499.615 61.4941 496.33 64.5783C493.044 67.6624 491.199 71.8454 491.199 76.207C491.199 85.2897 508.717 115.115 508.717 115.115C508.717 115.115 526.234 85.2897 526.234 76.207C526.234 71.8454 524.389 67.6624 521.103 64.5783C517.818 61.4941 513.363 59.7615 508.717 59.7615ZM508.717 84.2293C507.111 84.2293 505.541 83.7823 504.206 82.9449C502.871 82.1075 501.831 80.9172 501.216 79.5246C500.602 78.1321 500.441 76.5997 500.754 75.1214C501.068 73.643 501.841 72.285 502.976 71.2192C504.112 70.1534 505.558 69.4275 507.133 69.1334C508.708 68.8394 510.34 68.9903 511.823 69.5671C513.307 70.144 514.574 71.1208 515.466 72.3741C516.358 73.6274 516.835 75.1008 516.835 76.6082C516.835 78.6294 515.979 80.5679 514.457 81.9971C512.934 83.4263 510.87 84.2293 508.717 84.2293V84.2293Z" fill="#3F3D56"/>
<path d="M245.892 433.981L255.754 432.93L256.131 396.721L241.576 398.272L245.892 433.981Z" fill="#FFB8B8"/>
<path d="M275.812 438.181L244.819 441.483L243.46 430.241L262.478 428.215C265.654 427.877 268.843 428.737 271.344 430.606C273.844 432.475 275.452 435.2 275.812 438.181Z" fill="#2F2E41"/>
<path d="M144.473 433.403L154.398 433.402L159.119 397.464L144.471 397.464L144.473 433.403Z" fill="#FFB8B8"/>
<path d="M173.539 441.054L142.346 441.055L142.346 429.741L161.487 429.74C164.683 429.74 167.748 430.932 170.009 433.053C172.269 435.175 173.539 438.053 173.539 441.054Z" fill="#2F2E41"/>
<path d="M215.682 271.368L221.348 288.673L252.111 351.168L260.207 410.448L241.587 411.208L230.254 356.488L191.395 316.968L157.394 420.328L142.013 418.808C142.013 418.808 154.966 285.048 172.776 271.368C172.776 271.368 201.919 258.448 215.682 271.368Z" fill="#2F2E41"/>
<path d="M190.544 196.702C201.525 196.702 210.427 188.344 210.427 178.035C210.427 167.726 201.525 159.369 190.544 159.369C179.563 159.369 170.661 167.726 170.661 178.035C170.661 188.344 179.563 196.702 190.544 196.702Z" fill="#FFB8B8"/>
<path d="M217.705 276.108C217.705 276.108 220.134 198.588 186.133 203.908C152.132 209.228 166.299 284.088 166.299 284.088C166.299 284.088 173.585 297.768 191.395 282.568C209.205 267.368 217.705 276.108 217.705 276.108Z" fill="#CCCCCC"/>
<path opacity="0.2" d="M170.752 235.588L178.753 264.379L190.942 275.823L173.99 270.548L170.752 235.588Z" fill="black"/>
<path d="M217.956 308.893C216.838 308.512 215.821 307.906 214.979 307.116C214.137 306.327 213.49 305.374 213.082 304.324C212.675 303.274 212.518 302.153 212.622 301.04C212.726 299.927 213.089 298.849 213.685 297.882L194.774 277.329L209.682 275.508L225.354 295.304C227.018 296.352 228.215 297.936 228.718 299.756C229.222 301.577 228.996 303.508 228.084 305.183C227.173 306.858 225.638 308.161 223.771 308.845C221.905 309.528 219.836 309.546 217.956 308.893Z" fill="#FFB8B8"/>
<path d="M194.933 218.378L197.062 257.688L222.158 288.088L211.634 295.688L177.633 263.768C177.633 263.768 165.49 225.008 174.395 213.609C177.734 209.334 181.415 208.158 184.712 208.358C187.424 208.57 189.96 209.706 191.843 211.552C193.725 213.397 194.824 215.825 194.933 218.378Z" fill="#CCCCCC"/>
<path d="M188.179 197.649C188.274 197.569 188.348 197.469 188.395 197.358C188.442 197.247 188.46 197.126 188.449 197.007C188.438 196.888 188.397 196.773 188.33 196.671C188.263 196.569 188.172 196.483 188.064 196.42C186.298 195.394 184.859 193.94 183.899 192.211C182.939 190.482 182.492 188.542 182.606 186.596C182.72 184.649 183.39 182.767 184.547 181.147C185.703 179.528 187.303 178.23 189.178 177.392C195.023 174.775 202.945 176.811 207.266 171.783C208.145 170.707 208.766 169.466 209.088 168.144C209.41 166.823 209.424 165.451 209.13 164.124C208.198 159.375 204.395 155.848 200.136 153.431C194.904 150.462 188.891 148.928 182.778 149.003C176.665 149.077 170.697 150.758 165.549 153.854C160.402 156.949 156.28 161.337 153.653 166.519C151.025 171.701 149.996 177.47 150.682 183.173C151.231 187.744 152.734 192.869 149.839 196.58C147.291 199.846 142.481 200.459 138.257 201.27C129.195 203.011 120.453 207.026 114.304 213.512C108.155 219.998 104.874 229.098 106.728 237.605C108.582 246.112 116.02 253.588 125.162 254.907C132.603 255.98 140.287 253.013 145.751 248.152C151.215 243.29 154.669 236.725 156.848 229.96C159.434 221.93 160.454 213.277 165.122 206.125C169.691 199.125 179.535 194.108 187.251 197.753C187.399 197.826 187.567 197.854 187.732 197.836C187.898 197.817 188.054 197.752 188.179 197.649Z" fill="#2F2E41"/>
<path d="M342.34 441.68H93.8095C93.5948 441.68 93.3889 441.6 93.2371 441.458C93.0853 441.315 93 441.122 93 440.92C93 440.719 93.0853 440.525 93.2371 440.383C93.3889 440.24 93.5948 440.16 93.8095 440.16H342.34C342.555 440.16 342.761 440.24 342.913 440.383C343.065 440.525 343.15 440.719 343.15 440.92C343.15 441.122 343.065 441.315 342.913 441.458C342.761 441.6 342.555 441.68 342.34 441.68Z" fill="#3F3D56"/>
</g>
<defs>
<clipPath id="clip0">
<rect width="654" height="442" fill="white"/>
</clipPath>
</defs>
</svg>
